/* XPM */
static char *_42c1a7ca2e241b0c360356a91251858R2dTCaeCJoqPDHUN[] = {
/* columns rows colors chars-per-pixel */
"46 46 176 2 ",
"   c #050504",
".  c #0C0C01",
"X  c #01010C",
"o  c #0A0A0A",
"O  c #121202",
"+  c #181803",
"@  c #14140C",
"#  c #1A1A0D",
"$  c #010114",
"%  c #01011B",
"&  c #161614",
"*  c #1B1B14",
"=  c #17171B",
"-  c #1D1D18",
";  c #23230D",
":  c #262613",
">  c #2F2F1D",
",  c #000024",
"<  c #090924",
"1  c #00002C",
"2  c #1C1C25",
"3  c #17172E",
"4  c #1A1A2B",
"5  c #000033",
"6  c #0B0B34",
"7  c #00003C",
"8  c #0B0B39",
"9  c #171733",
"0  c #171739",
"q  c #1A1A38",
"w  c #1C1C34",
"e  c #2B2B26",
"r  c #393927",
"t  c #2D2D37",
"y  c #000043",
"u  c #0B0B43",
"i  c #00004B",
"p  c #141443",
"a  c #1C1C40",
"s  c #17174B",
"d  c #1C1C49",
"f  c #000054",
"g  c #00005C",
"h  c #0C0C5D",
"j  c #141455",
"k  c #12125F",
"l  c #18185D",
"z  c #202045",
"x  c #262648",
"c  c #373740",
"v  c #242458",
"b  c #3D3D5E",
"n  c #000064",
"m  c #00006B",
"M  c #0E0E6B",
"N  c #131363",
"B  c #12126C",
"V  c #000074",
"C  c #0D0D73",
"Z  c #00007C",
"A  c #0C0C7C",
"S  c #121272",
"D  c #121279",
"F  c #3D3D61",
"G  c #3D3D6C",
"H  c #3D3D70",
"J  c #4F4F4D",
"K  c #51514C",
"L  c #454557",
"P  c #4A4A53",
"I  c #40405D",
"U  c #404069",
"Y  c #000086",
"T  c #000083",
"R  c #0C0C81",
"E  c #0A0A86",
"W  c #0F0F81",
"Q  c #000088",
"!  c #000089",
"~  c #00008A",
"^  c #00008B",
"/  c #01018B",
"(  c #00008C",
")  c #00008D",
"_  c #01018D",
"`  c #00008E",
"'  c #00008F",
"]  c #00008C",
"[  c #0B0B8B",
"{  c #0B0B88",
"}  c #0C0C8B",
"|  c #0D0D8D",
" . c #101081",
".. c #000090",
"X. c #000091",
"o. c #000092",
"O. c #000093",
"+. c #010193",
"@. c #000094",
"#. c #000095",
"$. c #010195",
"%. c #000096",
"&. c #000097",
"*. c #000094",
"=. c #0B0B96",
"-. c #0A0A95",
";. c #000098",
":. c #000099",
">. c #00009A",
",. c #00009B",
"<. c #00009C",
"1. c #00009D",
"2. c #00009E",
"3. c #00009F",
"4. c #01019E",
"5. c #01019C",
"6. c #0A0A9B",
"7. c #0000A1",
"8. c #0101A1",
"9. c #0000A3",
"0. c #0000A2",
"q. c #0000A4",
"w. c #0000A5",
"e. c #0101A4",
"r. c #0000A6",
"t. c #0000A7",
"y. c #0101A3",
"u. c #0909A1",
"i. c #0A0AA2",
"p. c #0000A8",
"a. c #0000A9",
"s. c #0000AA",
"d. c #0000AB",
"f. c #0000AC",
"g. c #0000AD",
"h. c #0101AC",
"j. c #0000AE",
"k. c #0000AF",
"l. c #0000AB",
"z. c #0000B0",
"x. c #0000B1",
"c. c #0101B1",
"v. c #0000B3",
"b. c #0000B2",
"n. c #0000B5",
"m. c #0000B6",
"M. c #0000B7",
"N. c #0000B3",
"B. c #0000B8",
"V. c #0000B9",
"C. c #0101B9",
"Z. c #0000BA",
"A. c #0000BB",
"S. c #0000BC",
"D. c #0101BD",
"F. c #0000BE",
"G. c #0000BB",
"H. c #0000C0",
"J. c #0000C1",
"K. c #0000C3",
"L. c #0000C4",
"P. c #0000C5",
"I. c #0000C6",
"U. c #0000C7",
"Y. c #0000C3",
"T. c #0000C8",
"R. c #0101C8",
"E. c #0000C9",
"W. c #0000CB",
"Q. c #0000CE",
"!. c #0000CA",
"~. c #0000D3",
"^. c #0000D4",
"/. c #0000DA",
"(. c #0808D9",
"). c #1C1CF6",
/* pixels */
"x Q Q Q Q T Q ( Q Q Q Q Q Q X.A r A 1.&.1.&.;.1.1.;.;.;.1.;.&.;.;.;.&.&.7.v t Q ( ( ( ( X.z ",
"8 v.7.7.&.w.w.&.w.;.7.1.7.X.( m + u.E.P.w.H.V.;.p.v.D.f.1.M.P.v.f.V.E.V.M.8 4 P.f.w.v.v.w.8 ",
"1 p.T Q 1.;.Z X.1.V ( Z V V V i . A &.V V m m y i y V Z i g g n f m Z m n $ 9 V.w.;.&.p.T $ ",
"5 1.T 7.~.Z V T ;.( T m V m g y @ 8 7 7 7 7 7 y 7 7 7 7 7 7 5 o . O O . O . q M.f.D.p.Q V , ",
"5 w.( M.v.X.&.&.p.7.X.V m g m y O =.W.P.H.v.f.D.p.V.f.M.P.H.7.# N [ A A C 4 w v.1.1.T V m % ",
"1 f.&.w.f.w.Q V ;.1.( T m n f 7 O E V.W.P.7.f.w.&.;.w.7.1.e.Q . W f.;.;.T % 9 v.7.X.T ( Z $ ",
"5 7.Z 1.&.T ( 1.n m V V V T n 5 O E V.V.p.;.p.p.w.7.&.Z V X.m O D p.( V m % 0 v.Q 1.f.X.g X ",
"1 &.Q ;.T V ;.1.m n g n m V m 5 O [ D.f.p.&.f.D.p.1.m V T V i . A p.Q ( V $ 0 p.;.;.( X.f X ",
"1 X.X.V ( Q m m V g n m i 5 g 7 O [ V.1.f.M.w.V.V.w.V V Q g i O D ( ( Z m % 9 H.T V n T m X ",
"5 w.Q T T V m V V V g f n i n 7 O E D.P.X.;.&.( ( Q ;.X.V n i . A 1.T V V % 0 w.m m g n g $ ",
"$ n g y y y i , 1 , 1 , 1 , 1 % O } P.P.X.T 7.;.T T T V V n 7 . A &.1.V g , # o o o o . . . ",
"f f i i i i i f i f 5 , g i y f < Z V.;.X.X.7.p.X.X.Q m m f 7 O D f.7.1.V , 2 N N p p D B B ",
"E.H.p.V.P.p.f.v.1.D.m g ~.v.H.M.g m v.1.f.7.1.w.X.m T g y g 7 . C 7.V Z V $ 3 H.v.f m /.M.E.",
"M.1.&.&.7.Z Z &.V X.g i P.v.1.Q 5 V M.1.M.;.T T V V m i f n 7 O C Q f g g $ 9 f.w.7 n D.h.h.",
"7.&.v.V.( T Q ( Z V g i W.&.X.1.1 V V.7.;.1.( n n m g n g i 7 . A T g f y X 3 Q n 1 m W.v.f.",
"7.( X.H.1.T T m m Z i f M.&.V Q 5   o o   o o .   . o   . .   + &     , 1 % , 1 1 @ A P.8.1.",
"p.Q Q X.X.Q ( V V V 5 f D.Q m V 1 * N N N l N N N N N N N N N N k j : 6.H.D.v.M.w.# A M.$.;.",
"M.7.X.1.X.;.Q V m n 7 i H.T Z n 1 & H.H.M.E.P.H.D.M.H.H.w.H.W.v.w.m + 6.E.D.D.7.T .  .H.$.;.",
"f.( V w.v.Z ( X.T n 7 f 7.n V V 7 * M.w.h.^./.P./.M.w.1.e.e.&.1.T 7 O =.H.P.D.;.V . W P.c.7.",
"w.;.&.7.v.7.V Z V n y % 5 % $ , X = c.M.M.P.~.v.W./.1.Q V T Q T m y O 6.V.p.7.;.m . W W.N.p.",
"7.( w.1.w.X.n n n f 5 . 2 3 3 3 2 2 p.V.v.f.w.1.M.p.p.T Q T Z n n i O =.^.p.1.X.m .  .v.f.V.",
";.( ;.f.X.V n f n g i + u.V.p.M.h - v.p.D.1.T p.v.T p.&.T ( m m m 7 O =.W.f.X.p.n .  .V.7.1.",
"X.Q T X.T n m V m f 5 O =.w.X.;.y & M.D.p.f.w.7.&.V ( w.m m g m V 5 O =.V.;.w.p.m .  .w.( ( ",
";.;.&.V V n n V V g 5 O 6.w.X.T 5 & M.f.X.7.M.7.Q V V m V n 7 i f 5 O -.H.w.7.v.m .  .w.V T ",
"( 7.Q T V m i i n g 5 O 6.v.X.T 1 = 1.1.;.&.&.Z m V V m n g f g n 5 O =.D.f.Q V n .  .D.Q ( ",
"Z Q Z V T V g g f n y O =.V.X.V 1 = C.M.6.c.T m n Z T V n g g f f 5 O 6.P.&.( T g .  .v.w.( ",
"T V m V m m f i i f 7 O -.1.T V 5 * m i g f 5 5 5 5 7 7 1 % , , , % O -.H.T T X.n .  .7.&.T ",
"Q 1.Q Z V n g i g i 7 O =.7.w.T 1 # # @ @ @ @ * & & @ # & & & & & & * Q M.7.m n f O | P.( T ",
"n m n i g y , 1 , 1 , + 6.p.T m 1 & e.h.e.i.h.8.8.6.e.8.8.4.6.e.e.R ; -.V.f.p.V 7 . k V f n ",
"O O + o , 5 7 y 7 7 , # -.w.V V 1 & c.R.P.V.M.v.M.N.8.p.w.Q T &.7.n O [ M.7.w.V 7 o 6 y y X ",
"a $.6.h.v.M.M.D.D.H.$.; E 7.V T 1 = N.R.E.V.f.f.D.v.T T Q 7.;.Q ( f O -.D.Q m g y . S p.-.1 ",
"a H.D.H.P.v.M.V.;.M.&.O 6.M.V m 5 * N.D.M.E./.v.7.Q V V V ( Q V Q f O =.p.m n n i . B T m % ",
"s H.v.D./.M.7.p.v.v.Q O 6 1 % $ X = p.V.v.D.^.E.7.w.Q V m m m Z T i O R Q n n n y . M Q V % ",
"s H.f.w.f.v.X.;.M.w.m O w 0 9 0 2 2 1.v.D.&.f.v.f.7.1.Q V n m n f 7 @ o   . . .   O p h u $ ",
"s E.7.1.f.7.w.p.7.M.T O i.D.p.f.h * w.H.H.1.&.v.v.1.V Q T n n f i 1 @ l B N B S B S B N S < ",
"s P.v.M.;.7.w.X.T ;.T + 6.w.w.;.7 * h.f.p.f.p.H.D.M.X.T m g n m n 7 + 8.D.M.H.D.H.f.V.H.M., ",
"s D.w.1.v.V.7.Z g w.T O i.v.&.( y & f.M.7.p.1.v.H.D.p.p.n f g n m i O -.f.E.W.v.p.( 7.7.T % ",
"s D.7.v.).R.X.w.X.X.V O u.M.X.1.y * w.V.7.;.T T w.v.;.T V g g f i 1 O -.M.v.E.H.f.;.X.T V $ ",
"s D.M.M.(.V.Q ;.Z i i O 6.M.w.Q 1 = 8.v.p.Q T Z T T Z g &.T m g i 7 + =.V.1.;.7.7.T Z m n % ",
"s V.v.f.6.Z &.Q V g i + u.D.&.X.7 * e.f.f.M.X.V V T T g ( 1.V m g y O 6.v.;.&.1.T n m n n % ",
"s M.C.w.T ;.;.f.X.V i O 6.V.Q T 7 * v.f.7.w.Q 1.T V m g n T V n g 5 O =.V.f.&.f.;.V T X.f $ ",
"s M.h.1.;.m n ;.w.Q i O u.H.T m 5 * w.w.;.X.X.7.f.m n V g i f f y 5 O u.H.( 1.M.M.X.T &.n X ",
"s v.V V T T m T V m i O 6.7.m V , = p.M.X.V.f.n T n f g f y 7 i y 5 O u.v.w.p.;.X.Z V Z g X ",
"d f./ V V m m m n V f + 6.1.m m 5 = e.p.M.&.Q n n n g y i V n i i y + 6.H.w.1.T V V V n f % ",
"d 1.T T T V V V Z T V > E ( V ( j e v.w.;.( T T Z Z V m V T T V m m > 4.w.T X.Q V T Z V T 6 ",
"P F F b b F F F F b I K I F b F L K H G F F F F b F F F F b b b F I K U F F b b F F F F F c "
};
