/* XPM */
static char *aa82ba32f9254e58bc206baf8853d8af4fPtsGPqu3Mx7dmf[] = {
/* columns rows colors chars-per-pixel */
"64 64 154 2 ",
"   c #1F1B1C",
".  c #201C1D",
"X  c #262223",
"o  c #2F2C2D",
"O  c #302D2E",
"+  c #332F30",
"@  c #363334",
"#  c #393536",
"$  c #393739",
"%  c #3C393A",
"&  c #423E3E",
"*  c #45403F",
"=  c #464140",
"-  c #484342",
";  c #4E4B4B",
":  c #504B4A",
">  c #595657",
",  c #5A5758",
"<  c #5D5B5C",
"1  c #615E5F",
"2  c #63605F",
"3  c #5B5C61",
"4  c #625F60",
"5  c #646262",
"6  c #66676C",
"7  c #67696E",
"8  c #6C6969",
"9  c #716E6F",
"0  c #716F70",
"q  c #747272",
"w  c #797676",
"e  c #7A7778",
"r  c #7C7A7A",
"t  c #D25300",
"y  c #D96100",
"u  c #817E7F",
"i  c #F09235",
"p  c #E49344",
"a  c #E5974B",
"s  c #E6994F",
"d  c #F49B44",
"f  c #E69C53",
"g  c #E79F5A",
"h  c #E7A05B",
"j  c #E8A15C",
"k  c #F7A554",
"l  c #F8A554",
"z  c #E6A260",
"x  c #E8A564",
"c  c #EAA96B",
"v  c #EAAC71",
"b  c #777D85",
"n  c #797E87",
"m  c #817F80",
"M  c #7A8089",
"N  c #858383",
"B  c #898687",
"V  c #898788",
"C  c #8C8A8B",
"Z  c #908E8F",
"A  c #858C95",
"S  c #918F90",
"D  c #949293",
"F  c #989697",
"G  c #999798",
"H  c #9C9A9B",
"J  c #A3A2A2",
"K  c #A8A7A7",
"L  c #A9A7A8",
"P  c #ACAAAB",
"I  c #B0AEAF",
"U  c #B5B3B4",
"Y  c #B9B6B6",
"T  c #BAB8B7",
"R  c #B8B7B8",
"E  c #BCBBBB",
"W  c #F7BD84",
"Q  c #F9BE85",
"!  c #F9BF88",
"~  c #C0BFBF",
"^  c #F9C087",
"/  c #F9C28C",
"(  c #FAC592",
")  c #FCC896",
"_  c #FDCC9D",
"`  c #C1C0BF",
"'  c #FCCEA1",
"]  c #FDD0A6",
"[  c #FFD4AA",
"{  c #FFDAB5",
"}  c #F5D7BB",
"|  c #F5D8BB",
" . c #C0BFC0",
".. c #C4C3C3",
"X. c #C8C7C7",
"o. c #CDCCCC",
"O. c #D0CFCF",
"+. c #DCD5CE",
"@. c #D0CFD0",
"#. c #D4D3D4",
"$. c #D8D7D7",
"%. c #DDD9D5",
"&. c #D1D6DC",
"*. c #D8D7D8",
"=. c #D5D8DB",
"-. c #DCDBDC",
";. c #E5D9CE",
":. c #F6DDC4",
">. c #E2D9D1",
",. c #E9DED4",
"<. c #E4DED9",
"1. c #F7E2CB",
"2. c #F8E1CA",
"3. c #EAE3DC",
"4. c #F7E3D0",
"5. c #F8E5D2",
"6. c #FAEADB",
"7. c #D5DBE0",
"8. c #DADFE4",
"9. c #E0DFE0",
"0. c #E4E4E4",
"q. c #E8E7E7",
"w. c #EDEDED",
"e. c #EEEEEE",
"r. c #ECECEC",
"t. c #F0EFEF",
"y. c #F0EFEF",
"u. c #F0F0EF",
"i. c #F3F3F3",
"p. c #F1F0F0",
"a. c #F4F3F2",
"s. c #F5F5F5",
"d. c gray97",
"f. c #F6F6F6",
"g. c #F6F5F5",
"h. c #F4F3F3",
"j. c #F9F7F6",
"k. c #FAF8F7",
"l. c #FAF9F9",
"z. c #FBFBFB",
"x. c #FAF9F9",
"c. c #FDFBF9",
"v. c #FCFBFA",
"b. c #FDFBFA",
"n. c #FFFDFB",
"m. c #FCFCFB",
"M. c #FDFDFD",
"N. c #FDFFFF",
"B. c #FEFEFE",
"V. c #FEFFFF",
"C. c white",
"Z. c #FFFFFE",
"A. c #FEFEFD",
"S. c #FEFEFE",
/* pixels */
"{ =.E H I x.V.> U V.9.D w @.V.*.-.V.o.w D 0.V.K 5 V.a.L G ..8.) ' 7. .D I s.V., U V.0.D w O.V.*.-.V.o.w F 9.V.J 5 V.p.L G ..-.] ",
"-.V.U B V.V.w.# q.V.V.N N E -.V.V.*.E u B V.V.*.% x.V.V.r ..V.#.=.V.Y V V.V.w.# q.V.V.N N E -.V.V.*.E u N V.V.-.% j.V.V.r ..V.=.",
"..U N i.V.a.& N V.V.; & C . ......~   Z $ ; x.V.w ; x.V.w.m ~ Y E Y N h.V.a.& B V.V.; & C X .. ...E   C % ; V.V.e : j.V.w.m ~ E ",
"H N s...4 $ A V.V.V.O Z w S N < 4 N C r u O V.V.V.M % 5 o.w.N V C B h...1 $ A V.V.V.O S r S N 1 5 B C e u O V.V.V.M % 5 O.w.m D ",
"U V.V.< 7 ;.Q :.V.V.0.H u @ C q r C # V G 0.V.V.} Q >.3 8 V.V.C H V.V.1 7 ;.Q :.V.V.q.H u # C q r C $ V G 0.V.V.} ! >.< 8 V.V.J ",
"s.V.p.% ,.i t x V.j.V.0.o ; V.O.$.V.: O q.V.c.V.f t d +.% c.V.p.h.V.y.$ ,.i t x V.c.V.0.o ; V.@.$.V.; O 0.V.c.V.f t d %.$ V.V.s.",
"V.y.& A ( t y f V.c.c.V.V.V.V.V.V.V.V.V.V.c.n.V.p y t ] n : h.V.V.y.& A ) t y f V.c.c.V.V.V.V.V.V.V.V.V.V.c.n.V.p y t ' n ; s.V.",
"< @ N V.5.v x z V.V.V.V.V.V.0.L P 0.V.V.V.V.V.V.f c v 6.V.r # 4 1 @ N V.4.v x j V.V.V.V.V.V.<.P P 0.V.c.V.V.V.V.f c v 6.V.w # 1 ",
"P 0.V.V.V.V.V.V.p f g 5.V.w # 4 1 % N V.:.j f s V.V.V.m.c.V.9.P P 0.V.V.V.V.V.V.p f j 5.V.w # 1 1 # N V.:.g a f V.V.V.V.c.V.-.P ",
"V.V.V.V.V.j.c.V.a y t ] b : s.V.V.w.& A ) t y j V.c.j.V.V.V.V.V.V.V.V.V.V.j.k.V.a y t ] b : s.V.V.w.* A ) t y j V.c.j.V.V.V.V.V.",
"-.V.; @ 0.V.c.V.f t l %.% c.V.p.s.V.p.$ 3.d t x V.j.V.0.O ; V.o.O.V.; O q.V.l.V.f t l %.$ V.V.p.p.V.u.# 3.d t x V.c.V.0.O : V.*.",
"D B & Z H 0.V.V.2.' <.< 8 V.V.C H V.V.< 7 <._ 1.V.V.0.J C % C 9 w C & C H 0.V.V.1.' <.3 8 V.V.C H V.V.< 7 <._ 5.V.V.0.J V % B C ",
"w N C w N o V.V.V.n % 5 o.r.N B C N s...5 # A V.V.V.O V q C C 1 4 V C r N O V.V.V.n $ 5 #.r.N B C N s...4 $ A V.c.V.O V q C B 0 ",
"@.E   Z @ : V.V.w : x.V.r.r  .Y E T N p.V.a.& N V.V.: % C . ....o.E X S @ : V.V.w ; x.V.w.u ..Y E T N h.V.a.& B V.M.; % C . ..o.",
"V.-...N Z V.V.-.# s.V.V.r ..V.&.7.V.Y V V.V.r.# q.V.V.C B ..-.V.V.*...N C V.V.-.# j.V.V.r ..V.&.7.V.Y V V.V.r.% q.V.V.C V ..0.V.",
"*.V...< 0 #.V.J 5 V.i.D C T 7.W / &.E B F s.V., U V.o.0 1 X.V.o.O.V. .1 w @.V.J 5 V.p.S C E =.Q / &.T B D j.V.> U V.o.9 1 X.V.#.",
"-.V...5 e #.V.J 5 V.a.S C E =.Q ( &.R V F s.V., U V.O.w 5 o.V.O.#.V...5 r #.V.J 5 V.y.S C E 7.Q ( &.T V F j.V.< U V.#.w 5 o.V.#.",
"V.*. .N C V.V.-.$ j.V.V.r ..V.&.7.V.Y C V.V.r.# r.V.V.C B E -.V.V.*.~ N C V.V.*.% s.V.V.r ..V.&.7.V.Y V V.V.w.@ q.V.V.V B E -.V.",
"o.E . C % ; c.V.w : c.V.y.u ~ Y E R N h.V.a.& B V.V.; % C X ..` ..E . C % : V.V.e : x.V.y.u  .Y E T N p.V.a.& B V.V.; & C X ..X.",
"w r Z e m + V.V.V.n % 5 O.r.N B C B s...1 $ A V.V.V.O D e D N < 5 N C r u o V.n.V.M $ 5 O.r.N V V B h...1 $ A V.V.V.O Z w D r q ",
"D B # C G 0.V.V.| ^ >.3 8 V.V.Z H V.V.< 7 ;.Q :.V.V.0.H r # C q r C % C G 0.V.V.| ^ >.3 8 V.V.C H V.V.< 7 ;.^ :.V.V.0.H N @ V V ",
"0.V.: + q.V.c.V.f t d +.$ c.V.p.s.V.y.% ,.i t x V.j.V.0.O ; V.@.$.V.; o 0.V.c.V.f t d +.% c.V.a.p.V.p.$ ,.i t x V.c.V.0.o ; V.*.",
"V.V.x.V.V.c.c.V.p y t ] n ; a.V.V.y.* A ) t y f V.j.c.V.V.V.V.V.V.V.V.V.V.j.n.V.p y t ] n : a.V.V.y.= A ( t y f V.c.j.V.V.V.V.V.",
"P 0.V.V.V.V.V.V.f c v 6.V.w # 1 < @ N V.1.v x z V.V.V.V.V.V.<.P P 0.V.V.V.V.V.V.f c v 6.V.r % 1 < # N V.4.v x j V.V.V.V.V.V.<.P ",
"< # N V.:.h s f V.V.V.V.V.V.9.P P 0.V.V.V.V.V.V.p f j 5.V.w # 1 1 @ N V.:.j s f V.V.V.V.V.V.9.P P 0.V.V.V.V.V.V.p f g 5.V.w # 1 ",
"V.p.& A ) t y j V.c.j.V.V.V.V.V.V.V.V.V.V.c.c.V.s y t ] b : s.V.V.w.= A ) t y g V.c.c.V.V.M.V.V.V.V.V.V.V.c.c.V.a y t ] n ; s.V.",
"j.V.a.# 3.d t x V.j.V.0.O ; V.o.@.V.; O q.V.c.V.f t l %.$ V.V.p.a.V.y.# 3.d t x V.c.V.q.O ; V.o.@.V.; O 0.V.c.V.f t l %.$ V.V.s.",
"U V.V.< 7 <._ 1.V.n.0.J C % C 0 e C & V H 0.V.V.1._ <.3 8 V.V.C H V.V.< 6 <._ 4.V.V.q.H V % C 0 e C & C H 0.V.V.2.' <.3 8 V.V.J ",
"G u h...5 $ A V.x.V.O V q C V 1 5 B C e N o V.V.V.n $ 5 O.r.N B C N j...2 # A V.V.V.O C w C V 4 5 B C r N O V.V.V.n % 5 O.r.m D ",
"..R B p.V.p.- B V.V.; % Z . ....o.E X Z @ ; V.V.w ; c.V.r.u ..Y E T N h.V.h.* B V.V.; % C . ....o.E X S @ ; V.V.w : x.V.w.u ~ E ",
"8.V.Y V V.V.r.# r.V.V.Z B ..<.V.V.*...N C V.V.-.# x.V.V.m ..V.&.7.V.U V V.V.r.# 0.V.V.C V ..<.V.V.*...N Z V.V.-.# j.V.V.m ..V.7.",
"] #.T V F s.V.> U V.X.9 1 ..V.o.o.V...1 q #.V.J 5 V.p.S V E 7.Q ( &.E V D s.V., U V.o.0 < X.V.o.o.V.E 1 0 #.V.J 5 V.p.S C E =.) ",
"' &.T B G s.V., U V.#.r 5 X.V.o.#.V...4 r #.V.J 5 V.p.S C E 7.Q ( &.T V D s.V.< U V.#.w 4 o.V.O.@.V...5 e #.V.J 5 V.p.D C E =.) ",
"8.V.Y B V.V.r.# q.V.V.C V ~ *.V.V.*.~ N C V.V.-.# s.V.V.u ..V.&.7.V.R V V.V.r.@ q.V.V.C V E *.V.V.*.~ N C V.V.-.$ j.V.V.r ..V.7.",
"..T N s.V.a.& B V.V.; % C X ......~ . Z % : V.V.w : x.V.r.u ~ Y E T B p.V.s.& N V.V.; & V . .. ...~   C % ; V.V.e : j.V.w.m ~ E ",
"H m j...1 $ A V.V.V.O Z e D N < 4 N C e u o V.V.V.n $ 5 O.r.N V V B p...1 $ A V.V.V.o Z w S N < 4 N C r u O V.c.V.M % 5 O.w.m D ",
"U V.V.< 7 >.! :.V.V.q.H u @ C 9 r C # C F 0.V.V.| ! >.3 8 V.V.C H V.V.< 7 ;.! :.V.V.q.H u @ Z 9 r C # C F 0.V.V.| ! >.3 8 V.V.J ",
"s.V.y.# ,.i t x V.c.V.0.O ; V.#.$.V.; O 0.V.c.V.f t d +.% c.V.s.h.V.u.% ,.i t x V.c.V.0.O : V.O.*.V.; O q.V.c.V.f t d +.$ c.V.s.",
"V.y.& A ( t y f V.c.c.V.V.V.V.V.V.V.c.V.V.j.n.V.p y t ] n : s.V.V.y.* A ) t t h V.j.j.V.V.V.V.V.V.V.V.V.V.c.V.V.p y t ] n : s.V.",
"< # N V.4.v x h V.V.V.V.V.V.<.P P 0.V.M.V.V.V.V.f c v 6.V.r # 1 1 @ N n.5.v x j V.V.V.V.V.V.0.L P 0.V.V.V.V.V.V.f c c 6.V.r % 4 ",
"I 0.V.V.V.V.V.V.p f h 5.V.w # 4 1 # B V.:.g f a V.V.V.V.c.V.9.P P 0.V.V.V.V.V.V.p f g 5.V.w # 1 1 # N V.:.j a f V.V.V.V.V.V.-.P ",
"V.V.V.V.V.j.j.V.a y t ] n : s.V.V.w.= A ) t y j V.c.c.V.V.V.V.V.V.V.V.V.V.c.k.V.a y t ] b : s.V.V.w.- A ) t y j V.c.c.V.V.c.V.V.",
"-.V.; O 0.V.n.V.f t l %.$ V.V.p.p.V.p.# 3.d t x V.x.V.0.O ; V.o.O.V.; O q.V.j.V.f t l -.$ V.V.s.p.V.y.# 3.d t x V.c.V.0.@ ; V.$.",
"D B & V H 0.V.V.1.' <.< 8 V.V.C H V.V.< 6 <.' 4.V.n.0.J V % C 0 e C & V H 0.V.V.1.' <.< 8 V.V.C H V.V.< 6 <.' 1.V.V.0.J V % B C ",
"w N C r N O V.V.V.n $ 5 O.r.N V C N s...5 $ A V.c.V.O V q C C 3 5 B C w N O V.V.V.n % 5 O.r.N V C N s...1 $ A V.V.V.O C 0 C N 0 ",
"O.E X Z # : V.V.w : c.V.r.n  .Y E T N a.V.a.& B V.V.; % Z . ....o.E . Z @ ; V.V.w ; x.V.r.N ..Y E T N h.V.a.& B V.V.; % Z . ..O.",
"V.-...N C V.V.-.# x.V.V.u ` V.&.7.V.Y B V.V.r.# q.V.V.C V ..<.V.V.-...N C V.V.-.# x.V.V.m ..V.&.7.V.Y B V.V.r.# q.V.V.C V ..<.V.",
"-.V.~ 1 q #.V.J 5 V.u.S V E =.Q ( &.E V D x.V., U V.o.9 < X.V.o.o.V...< q #.V.J 5 V.p.S C T 7.W ( &.T B D j.V., U V.o.9 1 X.V.#.",
"-.V...5 r #.V.J 5 V.p.D V E =.W ( &.T B D x.V., U V.#.w 5 o.V.o.@.V...4 e #.V.J 5 V.a.Z C E 7.Q ( &.T V D s.V.> U V.#.w 5 o.V.*.",
"V.L E N C V.V.-.% s.V.V.u ..V.&.7.V.Y C V.V.r.# q.V.V.C V E *.V.V.*.~ N Z V.V.-.# x.V.V.u ..V.&.=.V.Y V V.V.r.# q.V.V.C B E -.V.",
"..C . C $ ; V.V.w : x.V.w.u  .Y E E N p.V.h.& B V.V.; & C X ..E ..~ . C # : V.V.e : x.V.r.u  .Y E T N y.V.a.* N V.V.; & C . ..o.",
"q e C r u o V.n.V.n % 5 o.w.N V V B p...1 $ A V.V.V.O C e D N 1 4 N Z e u O V.M.V.M $ 5 O.r.N V C N i. .1 % A V.V.V.O Z q S u 9 ",
"V 8 % V G 0.V.V.| ^ >.3 8 V.V.C G V.V.< 7 ;.Q :.V.V.0.H N @ C q r C % V H 0.V.M.} ^ >.3 8 V.V.C H V.V.< 7 ;.Q :.V.V.q.H N # B C ",
"*. .; o 0.V.c.V.f t d +.% M.V.p.a.V.p.$ ,.i t x V.c.V.0.O : V.@.$.V.; O 0.V.j.V.f t d +.$ M.V.h.p.V.y.$ ,.i t x V.c.V.0.@ ; V.*.",
"V...N.V.V.c.n.V.p y t ] n : h.V.V.w.= A ) t y f V.c.c.V.V.V.V.V.V.V.V.V.V.j.n.V.p y t ] n : s.V.V.w.= A ( t y f V.c.j.V.V.V.V.V.",
"L T V.V.V.V.V.V.f c c 6.V.r % 1 1 # N V.4.v x j V.V.V.V.V.V.<.L P 0.V.c.V.V.V.V.f c v 6.V.w # 1 < # N V.5.v x z V.V.V.V.V.V.-.P ",
"< @ N V.:.j a f V.V.V.V.V.V.<.P P 0.V.V.V.V.V.V.p f h 5.V.e # 1 1 @ B V.:.g s f V.V.V.V.V.V.0.L P 0.V.V.V.V.V.V.a f h 5.V.w # 1 ",
"V.Y & A ) t y j V.c.n.V.V.V.V.V.V.V.V.V.V.c.c.V.s y t ] n : s.V.V.w.- A ) t t g V.c.c.V.V.V.V.V.V.V.V.V.V.c.n.V.s y t ] b ; s.V.",
"r.E r.$ 3.d t x V.c.V.0.O ; V.o.@.V.; O 0.V.x.V.f t k -.$ c.V.s.s.V.p.# 3.d t x V.c.V.0.O ; V.o.#.V.; O q.V.c.V.f t k $.$ V.V.s.",
"I -.V.1 6 <._ 1.V.V.0.J C % C 0 e C & V H 0.V.V.1._ <.< 8 V.V.C H V.V.< 6 3._ 5.V.V.0.J C % C 9 w C & C H 0.V.V.:.' <.3 8 V.V.J ",
"H 8 s...4 $ A V.M.V.O C q C V 1 5 B V w N O V.V.V.n # 5 o.r.B B V N s...2 $ A V.V.V.+ V q C B 1 5 B V w N O V.V.V.n % 5 O.w.N D ",
"E N B s.V.a.& B V.c.; % C . ....o.E X D @ ; V.V.w ; c.V.r.N ~ Y E T N h.V.h.& N V.c.; % C . ....o.E . D # ; V.V.w : x.V.w.u ~ E ",
"&.#.I V V.V.w.% 0.V.V.V N ..0.V.V.-...r V V.V.-.# x.V.V.u ..V.&.=.V.Y B V.V.r.% 0.V.V.B N ..0.V.V.-...m V V.V.-.# x.V.V.e  .V.=.",
"{ #. .D I s.V.> U V.#.V q o.V.#.$.V.X.q C -.V.J 5 V.h.L F ` 8.) ] 7.` D P j.n.< Y V.#.C q o.V.#.*.V...0 C -.V.J 5 V.h.L H ..-.] "
};
