/* XPM */
static char *result[] = {
/* columns rows colors chars-per-pixel */
"64 64 37 1 ",
"  c #121619",
". c #161A1C",
"X c #181C1F",
"o c #1A1E21",
"O c #1D2225",
"+ c #1F2528",
"@ c #1F282B",
"# c #202527",
"$ c #212629",
"% c #242A2D",
"& c #262D31",
"* c #282F32",
"= c #273133",
"- c #2B3235",
"; c #2E3539",
": c #2F383B",
"> c #30373B",
", c #323A3D",
"< c #353D41",
"1 c #383F44",
"2 c #364144",
"3 c #394346",
"4 c #3C4549",
"5 c #3C494B",
"6 c #40474D",
"7 c #414A4E",
"8 c #444D52",
"9 c #465155",
"0 c #495257",
"q c #4C555A",
"w c #4F595D",
"e c #505A5F",
"r c #525C61",
"t c #566066",
"y c #5A6469",
"u c #5E686E",
"i c #606B71",
/* pixels */
"<<<33613311,1,11<<>><<11#**--=-==-====--*;;,8<113344335;54343332",
"<<<1472233311111<<<>>>1*#*---==:-=======;*%*81111133445,4333422<",
"<<1,>7333611,3111<><>>1>#;-*--=======*==**#*0<<<<<23433>13333311",
"<<3>=544331161,1<<1<>,1>o>**========****&*%*0<,><<<2311*<111221<",
"111>%3346611,,6,11<-<11=$1$*=&==&==&&===&;$&7<:::<<<<<1&,<<11111",
"1,1>$334111111,,>-&><<4;o3+$@@@@@&@=%%%;-;*#33::>:>,<>1$*,,<<1<1",
"1176#68111,>;*&$&--;<<0<o6,%&@@@@%%%%&*;;>*O;;=-;><:><4$&<,,,<11",
">>>1#,%#OOooooo#$o++$&;;X*&$+OO++@%%+++$$+oo+oO++$&$##$o$*$%%O%&",
",:,:>;%**;,,,>>.=<;<<;=-;>>-;-*<:=O%===%#%=%====%$$%%OOOoOOoo>>1",
"9q99qeqq0000wtw>qt55855565688090wrO2ueq99qqeeeeerrw852;=***-1r08",
"3533333<>>,,>qe6q5<<2444445534447q@,q5555252222:<<<<2::=&&*>4613",
"3555732,,,>,<,86532224554565586880=,925555552222<<<<2232-&&&>333",
"355531<,,,,,<<7634<222444565459997-17455555252222<<<22232,:**,33",
"555211,,,,,,,,71<<<4214455554898,;%3345552525222221<2223222;%>35",
"55521,,,>,,<1,7><<--43<15565580*%<=;32435255222522122222332-$,33",
"222:,,,>,,,<,1,*;;;;;1114554503&,4-&6635222225222<122222222;$,25",
"222,,,2,>**-<>%$>1<<><<<234550&-<6-%6865553334342112222<223,$341",
"%=:,223:$$$+$+$o<1>*%%oo@@%=<<+<<1o%-%;;-,;,2,>;;;=<<2<<;&$+O-*$",
"%%==#OX.ooo++o+$>**%$o%%======;<:&$*-*%$$.OOOOoXoO+oo+O.+%@@%$%%",
"59qrte9q0<0rq01680661>rrqqw5888wrrrrrre9r:=72332131+:<:.<u936786",
">,,15777w1ww1<<11<<<>-q022=2<<<3>;><11<10<=1;=*==;%;<<2=5e3432,>",
",,,,,:,>1<<;&&<1<131<-062222<<33;;>><:<<4,>;%&%==%-2<=<=8034332,",
">>>,,1,,1<+164<<2231>*662<<<<<;=-;::::><3<;;&&&=;%<<;-:;4844441>",
">>,,11,,<*<r81<14211*&6122=<=@=---;;;>,<<>;;&%=-=%<;;-:=,34343,>",
">>>1<<>11%>04<<1214<*&1<;<;=--=-;;;;;:<<,;***&&-%-:;>-;-;2344<,>",
">,,><<<>1%%61<<1333<*$<<;===**--::::;:<<>&&*&&=%=2--;;-%%<3331,>",
">>,,<><,6%%6<>11434<&$-<<&==*-;;;;>,<<<<;#%-&**$:--->;$#%<11<,<>",
",<<,>,<10%$66116586&&$<1=<-<;;<<1<345441*%%,**%*:;>,3%##%43<,>>>",
"**%****%>$O6<$$$&=&@-+1-&&&%%*&&&&&&%*-<%O OoX.O$$$-$XOXX#o#$#O$",
">>-*XX%**%*>**%%&&&&*&&$@oo$%%&&---;->--,:>,,2,*+#%%*->-;;;Oo***",
"600e>%6>>><1116645414114<$rrrwrrwwqqq0qqeeeeeeqr87r0008wqww1%167",
">,>66>6***--*;**==-<*&&*;-r854<<<111111<,,,,,220:8w2,,>,,,11->,>",
"1,,12,2=--::-:------%%%%&-w2331,<<1<<<<<2,2,,,18-97,1,,,,<111,><",
",,,2,2:=::=::--==-=&*%%%#=6,<,11<<;-:<:;,,,,,,,7-88,,>,,,<,,<,<>",
",,,,:,:=::--=====&&&%&%$%O&;>>,,<<;<<:<>2::::::3-14,,,,<,,<<<1<>",
"11,,-*:::=--====&=&%&%%%$#-%%&#&<;::;;<<::::,,:,%-1,,,,<1,,,>><<",
"11,1:#:=========&=%%%&%%%O47663%&,,>;>>::;:::;;;%%,,,,,,>1><<>11",
"1111:#==-:-=-===&%%%%%%%%O146668>=,>::;;;;;:;-;;#%>>>>,,1>>>11>1",
"3437:X@--=:--=-=%=%%&%$&*X;,,3337;%,,>,>,;;;-;;,##>,,,,<1><11111",
"*->>=X=%===@+###$+%%$$$&&.$**--;--O%=;=&*%$$O@+-*#-**********>>*",
"%%#######+#+##o..O#%**%Ooo$$%*%%$%$$#....XoOOO+$###O%%=%#$$%%%**",
"00eerttttttrqq8.8yteee07867776100eeer3#32*---::,35##yee9000wwq00",
"333357775575559&0y33223666889-708763ee:32=*-===%%3%-r22211113211",
"311,22312255559208-233365680>1w338338e-,2=--=%==#*=,9:5216663661",
"22222221<223557107;,<3266884=r0085552q2::=====%=##%:7:2222533332",
"22322,1,<222337,84-:,2<35661;r55755225::-=-====%###*2:2255223222",
"22323,,1<<22537-73;;,<,24664-055355222--==&-&&%@###&2---55525222",
"2333,>1,<223337-33:::,,2<454&154552222#&=%&$%%%@##%%,-=%=5252323",
"2222,33,2213333%<<-<-<<<<111&<435221;<@=;%=@%&%$####:--&+#=,5222",
"222233,3333133>#<11<<<11<111&<4<2<<;<2o<;%=%%@%$%==O----=&#%2222",
"::::,,,2,,113-##*6<&%*--*&&-;<;-@&&&&<X21%&%%%$#++%o%===%$&$=2:;",
"#####X#XoXo##XX.+oooooooooooooooO+OOoOXOoOo.OOOOXOX.Oo#OO#$$O%%%",
"2,237qe3.3971,-%%&<<<11641186%1rqeq8525<<442444X7q77377777778773",
"222259yt;yy7757511<<16066860r<1u084455555555776=e9257555531,::,2",
"22255299,w92331,<<<<11<111<<q*6q;<<23555555532,;w:;,552222,,::<2",
"22335399-w93511,<<<<<<<<11<<0<8r><223255555533,$92,,222312<,:::2",
",1,15377-07552::-><<-><<<1<<8>6r:<<<2554555522;%3:<<::<<<<2,,,>,",
"2,,23444*7732::2<46*---<<<1<1>11;<11434444332,-$<;;;:::>,,,,,,,,",
",,,23541#572,:,,<>*--<--<<116><<-1<<3344443<<<-O=;;;-;;;::,:>>,1",
"1,233573#77:,:2,#$*---<<<<416<-<*<<1243431<<,,*o&**=-;;;:;;,,,,,",
",1144736X17;::2#%-**-<<1<11<<<$<-<112444111111*o&1;;;*;;;;,,,;;>",
"###O#XXOX*%##%#.$$%%$%+Oooooooooo++@@%%%&&&#oo+oo%%+##O$$#%&%$##",
",1,#.13131113222111<<<1>$<-*&*&%--=-=%==-*$o<1114114631#&3332,,,",
"1351,t947744333566666666-1-<-<-<*<==<;;<;<>1r8866695788&0e667663"
};
