/* XPM */
static char *_0f949ced3c44d3aaaebd995ced0722e1or9MpPakoNPiycx[] = {
/* columns rows colors chars-per-pixel */
"64 64 239 2 ",
"   c #1C0D01",
".  c #1D0C0B",
"X  c #170702",
"o  c #1C1302",
"O  c #1D1A00",
"+  c #1E120C",
"@  c #1F1808",
"#  c #1E1310",
"$  c #230D04",
"%  c #2A0A04",
"&  c #240B0B",
"*  c #2A0C0B",
"=  c #260405",
"-  c #231404",
";  c #2C1405",
":  c #241B04",
">  c #2A1D04",
",  c #24140B",
"<  c #2A150C",
"1  c #251A0B",
"2  c #2B1B0C",
"3  c #331C0C",
"4  c #341808",
"5  c #251511",
"6  c #2B1513",
"7  c #261B13",
"8  c #2B1C14",
"9  c #2C1D19",
"0  c #261A19",
"q  c #301313",
"w  c #311E14",
"e  c #331E1A",
"r  c #361819",
"t  c #300C10",
"y  c #272105",
"u  c #2B2204",
"i  c #27210D",
"p  c #2C220D",
"a  c #32220C",
"s  c #3A250D",
"d  c #322A0F",
"f  c #382202",
"g  c #2D2214",
"h  c #2D231B",
"j  c #2D291C",
"k  c #292715",
"l  c #322314",
"z  c #392515",
"x  c #342B15",
"c  c #3A2D14",
"v  c #33241C",
"b  c #39251C",
"n  c #342A1C",
"m  c #3A2B1C",
"M  c #363215",
"N  c #3A3315",
"B  c #35321B",
"V  c #3A331C",
"C  c #3B3B1C",
"Z  c #2F1E22",
"A  c #341F21",
"S  c #2E2522",
"D  c #2E2B22",
"F  c #2F2A2E",
"G  c #342522",
"H  c #3A2622",
"J  c #352B23",
"K  c #3A2C24",
"L  c #3B262C",
"P  c #352C2B",
"I  c #3B2D2B",
"U  c #362629",
"Y  c #343224",
"T  c #3C3324",
"R  c #3D3A24",
"E  c #35332B",
"W  c #3D332B",
"Q  c #373A2A",
"!  c #3C3A2C",
"~  c #3C2D33",
"^  c #342E34",
"/  c #3D3432",
"(  c #373830",
")  c #3E3A34",
"_  c #3B363A",
"`  c #2F3720",
"'  c #422B01",
"]  c #492708",
"[  c #532C0D",
"{  c #552904",
"}  c #4B340A",
"|  c #5A380B",
" . c #432917",
".. c #522A14",
"X. c #44351D",
"o. c #423E1D",
"O. c #4A351E",
"+. c #563413",
"@. c #5A3412",
"#. c #5B3A15",
"$. c #653201",
"%. c #653C07",
"&. c #613B14",
"*. c #643718",
"=. c #402D24",
"-. c #422D2A",
";. c #442A26",
":. c #413424",
">. c #433B24",
",. c #43352C",
"<. c #4B352D",
"1. c #443A2D",
"2. c #4A3D2C",
"3. c #4C3926",
"4. c #432D35",
"5. c #472D34",
"6. c #423532",
"7. c #493533",
"8. c #443B33",
"9. c #4A3C34",
"0. c #44363B",
"q. c #4A353D",
"w. c #453D3A",
"e. c #4A3D3A",
"r. c #523D3D",
"t. c #543837",
"y. c #543E27",
"u. c #3E412C",
"i. c #3E4135",
"p. c #45421B",
"a. c #4C461C",
"s. c #4D4A1C",
"d. c #4C4617",
"f. c #534C1D",
"g. c #58561D",
"h. c #60400F",
"j. c #754A06",
"k. c #6C4715",
"l. c #6D5416",
"z. c #7A5413",
"x. c #7C6110",
"c. c #4B4622",
"v. c #44432C",
"b. c #4B422C",
"n. c #4D4B2D",
"m. c #4C4824",
"M. c #534D25",
"N. c #524D2C",
"B. c #555223",
"V. c #595524",
"C. c #5C5A24",
"Z. c #56522B",
"A. c #5A552B",
"S. c #5D5A2B",
"D. c #434235",
"F. c #4B4334",
"G. c #4C4A34",
"H. c #45433B",
"J. c #4C433B",
"K. c #454A3C",
"L. c #4C4A3D",
"P. c #434A35",
"I. c #524535",
"U. c #524C35",
"Y. c #51443D",
"T. c #534B3C",
"R. c #5C4838",
"E. c #4E523C",
"W. c #45513B",
"Q. c #555234",
"!. c #5A5434",
"~. c #5F5A33",
"^. c #55523B",
"/. c #5A553B",
"(. c #5B5836",
"). c #615E2C",
"_. c #615F24",
"`. c #625D34",
"'. c #615D3E",
"]. c #636227",
"[. c #686434",
"{. c #453C44",
"}. c #4B3E44",
"|. c #473945",
" X c #503D42",
".X c #563F4F",
"XX c #3E4442",
"oX c #454443",
"OX c #4C4442",
"+X c #4D4A43",
"@X c #4C444A",
"#X c #4D4B49",
"$X c #45464A",
"%X c #514542",
"&X c #534B43",
"*X c #594E45",
"=X c #54444B",
"-X c #544D4A",
";X c #5A4D4D",
":X c #594743",
">X c #4A5044",
",X c #4D5449",
"<X c #545244",
"1X c #5B5444",
"2X c #54534A",
"3X c #5B524B",
"4X c #59594D",
"5X c #5A5A44",
"6X c #544C53",
"7X c #5B4E54",
"8X c #545253",
"9X c #5B5352",
"0X c #5C5657",
"qX c #61544C",
"wX c #635A48",
"eX c #615453",
"rX c #62585B",
"tX c #666243",
"yX c #875607",
"uX c #96690D",
"iX c #B67912",
"pX c #B1700A",
"aX c #886A22",
"sX c #BF800E",
"dX c #B78927",
"fX c #BD992B",
"gX c #C58413",
"hX c #D6951A",
"jX c #D4A91E",
"kX c #E4A219",
"lX c #F1BD1C",
"zX c #CD9931",
"xX c #DCA42A",
"cX c #CDA233",
"vX c #E4A429",
"bX c #F0B62F",
"nX c #FED315",
"mX c #FFCC1C",
"MX c #FBC725",
/* pixels */
"E 9.w 7 K E ! P n K n b H g 5 v D n b v j J J v 5 , g x h 9 7 I H w 9 G S 7 h < v H n n b K G D j , 7 n K K :.J E E ,.:.X I Y.h ",
"9.8.,.& 8.Y.w.H.8.J 8.9.7 0 8.9.t.w.i.i.,.K H G ~ OXw.w.Y.9.I E.L.h T.J.w.w.I / v G W W K.H.Y.r.e.w.v h 9.8.I J.H.J.&XJ g W 7.9.",
"v K Y.l < e.J.w.Y h 5 0 I e.J.w.K.D.K e v / H.+X&X+X@X9XJ.~ 6XV v.{.U F.-X-X+X&XL.D.W e e I J.K.w.e.w.J 0 8 S / OXJ.,.$ :.r.T 7 ",
"7 5 v <.8 g 7.J.8.e.H.e.e.OXe.6.j 7 & K -X2Xw.w.! R 6.( j @Xt.aXl.OX$Xx 8.6.>.! w.H.#X-XJ 6 7 D e.J.J.J.e.Y.J.9.e.9., g ,.e < 7 ",
"W W 7 7 b - J K ,.T H K =.K h 5 l 9.+Xw.6.I P ( w.2 * 0 W.#X#.bXbX .K.P.. t H _ Q I P 6.8.&X8.v 7 v T ,.K H K ,.,.7 , T < , 9.G ",
"6.*X) 8 < e K j 8 8 w v 8 , v 9.L.T.6.v L Y.L.H.I z % T.>X/ #.hXiX] H.+X%X% q ~ H.L.r.H G ,.&X<X1.j , 7 v l 9 h G K g   J e.-XJ ",
"W H.H.&X9 =.7.J.J.,.F.8.h K &XJ.9.v 9 / ,Xi.g * z s a 2 w.0XR.| +.8.-Xw.2 3  .x * 8 i.>XH.8 v r.*X*XJ j F.J./ H.e.H.j x J.OX9.J ",
"/ H.i.H.,.H 8.i.! &X8.S ) <XOX( , T +X-Xe.I H K b v l 2 7 -.qX#XXX+XK < 7 v l b K K J e.2X+XJ 7 ( OX2X8.J 8.&XH.9.Y.g 8.H.w.H.D ",
"J w.J e.K v L.8.7.J o D.9X=XH 1 u.L.OXOXi.+X-X#X+XH.H w l , n wX*X2 , 1 v K ) #X;X#XoX+XH.#X1XQ : W @X0XP.@ J q.w.8.w 1.w.J H.v ",
"T W j F.I 0 ,.+Xg W E E / G 2 b.6X=Xw.9.F.+XJ.-X+X3X3X9.G v v J h H n K J.&X3X#X-XJ.H.8.J.OX=X6X1.8 K ) P w.W T &X! w W w.v ! b ",
"K 8.7 H.W 8 e.6.g J 2XOX6.b 2 T w.K l 8 9 9 9 T 1.Y.+X-XeXeXH 7 h J 3XY.*XJ.T.W v g l 2 v e P OX<.1 m 8.OX0Xj : 9.D.< 1.W 9 F.v ",
"H 8.8 8.,.9 8.D 1.j oX&XF.Y.H.8.T V T ,.K 6 w p 2 x J.-X3X6.G J.9.G W -X&XJ.h g l a 1 K 6.w.! N 6.e.OXJ.&XL.P w.J ! w 9.,.e F.l ",
"H g W H.-.7 G 6.;X/ W L.L.L.J.}.-XOXL.:Xe.6 9.:.m o %X#XOXP J.8.,.%XS H.-X6.8 l 6.9.2 9.-X-X<XL.-X}.-XH.I.n e.0Xw.k 9 1.J.K v b ",
"8 g 9.Y.I 7 W 2X}.G 8 J.+XW X. .4./ ( H.1.  I.OXn F.1X3XJ L.*X9.F.&X1.j &XT.9.j }.J.- :.+XF ~ t.O.c v.D.%XG G }.9XE - 6.+X9.7 w ",
"1 8.F.9.v J &XOXK 2 1 8.OX .k.yX%.@.2 %XY.< J -X:X3X*Xn ,.6.1XY T T.T.1.x &X&X&X;XI , 9.OXb @.$.j.%.3.H.e.v 1 T -X2X8 K w.%XQ 2 ",
"v Y.w.W h Y.OX! > X.1.4.=X] yXMXMXdX' r.%X7   D.3XH.Y ,./.T.T.g k J.I.T.T J H.3X>.o 7 =X7.} dXkXlXuX .=X6.2.:., _ ,XJ.7 J.e.F.e ",
"W e.i.j I L.t., ` 7X0.x <X=.$.kXmXzXf e.3Xl - w :.v K <X^.Q.z 3 z x G.G.^.K 7 ,.> t J <Xe.{ xXnXMX%.5.*XM H.0XY 8 Y.L.G E H.t.D ",
"G Y.w.7 Y.J.v E 4XOX4.T L.I @.dXxXzX&.<.=X( S b - K eXG.G.R a 3 4 p R K.F.wXm - v S W #X7.k.zXxXzX+.4.OXR ~ OX3XJ w &Xw.h H.Y.h ",
"v J.K , &X,.k -XD.,.v ,.OX/ w } { k...;.6X$Xj s 3 2 F.T.^.B O l l - M ^.T.I.2 3 j 7 ,.3X;.+.k.] ' 2 ^ 8X6.v J.&X+X0 e.H.6 -.L.9 ",
"J i.7 G 8.G H.-X! J.e ,.&XH.e.7.E W m 7 6.OX3.4 m - m /.^.Q.C 2 2 M G.G.T.l 2 m z ,.,.m < ~ w.8.7.OXe.9X,.9 &X) 4XL.v H.I z D.v ",
"J E w %XW H 2Xw.OX8., =.2.W r.q.2X+XE.J 8 ,.eX~ 2 - 2 G.Q.5X/.c g U./.G.G.; 2 < I ;XW 8 9.8X-XE.%XY.T F.=.2 8.+XD.4X9 6.&Xe ,.v ",
"J n H *XJ 6./ J OX9.g 1 <   & G l T H.&X1.l w.#XX.2 ; g wX!.wX>.:./.G.5Xp - l =.6XR k 6.;Xe.W l G     < 2 b F.,XK i.6.I 4XG I J ",
"G v ) H.J 6.8 K =XH.g > 9. Xv   q e 9 6.qXm @ B I.1.V - Q.tX'.a x /.U.n.- b 2.Y.W O Q rX7.g G t $ v J.I.8 v Y.oXW 8 +XD -X) b v ",
"0 H J.8.J 8.< H %XJ.n l I |.;XR > l z q W -X,.% k m 3.l N tXU.u u n.n.x l :.K 8 * H 6X6.: x H 4 T 9XoXW v v ;X-XK % i.D &X2Xh v ",
"< I L.! ^ P z l oX&X,.l l l -X9Xm ; 3 2 p ,.e.0 9 u u 1 n ~.Z.i j N.N.G 7 > : 8 g F.K 2 m 3 - =.0X+Xx l w W -X#X8 H W W w.*XH 8 ",
"2 6.J.2.6 3 z z ) -X1.2 8 ,.Y.e.9 H , a ; - I.m u g.g.c y !.`.T c S.S.p a M.f.; T b.l - < < m 7 H.*X1.8 g F.9X) l c ; < H.Y.I 9 ",
"@ w.oXI q q 4 1 I J.+X9.W %Xe.v 6.%X:Xm ; - x :.> V.[.o.O m.`.p.s.].B.y m A.V.> V m - ; v I.qXY v J.:XT 8.:X&XE g 4 4 6 |.@XJ., ",
"j w.;X6.. 9.2 l 8 9.OXJ.&XH.G ,.T.G.G.F.G.n 1 7 2 c X.V : m.).B.N.S.a.7 :.c u 2 y y l b./.T.G.^.:.n J.*X&X+X9.9 p 2 7.. 6.rXw.j ",
"S 9.2.d u.i./ , 2 K -XOX/ J b :.R G.Q.G.G./.G.C n i O p y p.V.V.A.~.p.O 2 : p :.>.Q.5XQ.<XE.v.L.U.T ` / %X;X=.< , W E.Y n 2.:Xh ",
"7 T.A ~ ) ! #XH , 8 J.w.G P 8.:.! j R G.Q.N.(.[.`.C.f.s.p.A.).V.B.C.S.m.m.n./././.n.v.U.G.B >.T.G.&XW S 6.:Xv % W *XQ F./ I ;Xg ",
"e 0 |.5.+...<.+X7 H v 8 ,.9.8.J.v w > >.'.Q.`.m.Z.).[.].C.S.S.B.g.s.V.S.A.Z.(.N.U.^./.U.c - 2 a F.F.&X9.h J H 1 =Xy.&.[ <.0.9 v ",
"e F.C l.xXpX] oX*X9 8 8.W ,.I 7 3 ; 3 - M >.x i p c s.f.C.B.B.B.S.S.B.B.B.b.x g i x :.3 2 w < 3 g K ,.3.9.8 j 2X$X&.gXvXx.o.&Xv ",
"e 8.V x.xXiX| $X9Xh 9 ,.1.,.n g 3 ; 3 o T V x y y N o.B.S.A.S.].C._._.).N.C M k > d >.z - 3 3 3 g n >.,.8.9 9 qX@X| sXvXx.C J.z ",
"w 0 0.,...[ R.2X6 b n 8 I.T.1.9.z p 2 C U.U.(.m.m.~.[.A.V.d.g.g.s.g.C.B.~.).S.G.v.^././.:.1 2 z w.T.T.,.b K v 9 7X3.+.*.<.|.U z ",
"7 :XG I / w.*XJ - 9 J.W J T T.2.n.c C v.b.Z.n.'.~.Z.B.p.s.A.]._.B.C.V.C >.m.Z./././.F.^.G.x N G.J.T.1.T 8.-Xb   K 3XQ w.e.P OXe ",
"9 F.b.x ! D.W . 1 b L.J.8.v T I.P.Q.v.G.G.Q.m.x l > O i i A.C.C.B.C.B.o , : 7 J B v./.^.^.L.P.L.T.! h ! -X%XH w < ! K.>.z U.Y.9 ",
"j / -X,.. 7.< x 8 8.e.J.2Xw.H 3.b.G.1.U.I.i 2 1 1 c N J @ n.S.S.B.[.Z.1 J :.x 8 l - g F.T.G.F.G.T g T L.J.W K 2 l 2 9.& 4.0XoXg ",
"1 w.{.L 6 % 4 2 J J.%X8.I J.Y.h Q Y./.l - - x ,.i f.`.>.: s.].s.c.S.p.O c.`.f.1 T m O - m I.1XT j 1.T.D.J.OX:XJ 2 3 ; t 4.$X8.< ",
"8 W H.1.< 4 l g E L.9.8 8 ,.*Xw.8 b 2 , 1 1 F.J i } d.x 1 B.[.c V ~.c.y N B.d.: J 9.w - 1 2 K l D.1X:., b e.&X8.m 3 > 3 :.H.8.7 ",
"6 v L.E / I H l J.8.T 2 a v &X3Xb , > w l T F.g , u : 8 7 Q.~.g i !.!.m 7 2 2 , g 9.:.w z 2 < K 0XT.x l 9 1.&XoXz n Y W P T.b q ",
"9 A H.W I W % K &Xw.v p T e.-XT 4 m j > K -XP * g J :.1 x 5XQ.i : U.!.c l :.n 8 % ! >Xx 3 b b ; ,.7XOXW a J -X8XT % D.D e.H.h 9 ",
"v H 6.9.j w.8 K H./ v , 7.9.9 , 6 7 7 q.qXR o K Y.9.n o F.^.Q.l x U.x b.> x I.J.L   6.6X0.S , e , v 9.F.8 b J.H.H e H.h *X! H H ",
"v J J %XG 7.W J F.F.v 5 , , - < l B J.=XI g R ;X:.p o g /.G./.1.z M G./.l 1   3.7X,.1 I -XL.C z 9 o o 6 6 r Y.<XH K.,.J 4Xv K n ",
"G Y 6 J.W G <X/ F.W , 7.e.J 9.}.T.#X3X-., ~ 9XI 2 - : 2.L.Q./.c O n.G.G.b.$ g 1 x 3X-.2 T &X&X&Xe.Y.T e.4.< D.oXH.,Xe 9.OX8 8.8 ",
"J ( 6 S w.e H.#X/ e.7 ,.&X) e.r.0.4.l - K =X8.u m ; l U.G.F.V 1 1 c G.v.L.x 3 z a E #XT - -.5.|.9.J.OX-X,.9 &X) 4Xw.v H.v e L.8 ",
"j F.J 1 J.,.7 &XOXw.v m oX) w f ' &.} n 9XY.l 9 2 2 b.L.L.x 1 2 3 1 x ^.T.2.2 2 b 8 oX2XX.&.k.' ] 4 0.*XT h 0.6X+X7 e.i.5 ,.H.w ",
"h e.6.7 8.J.g J <Xw.W >.L.G &.zXhXzXk.I {.K w L $ T 1XG.v.R w 4 3 a x D.D.qXm , e b E +XT %.cXjXcX#.I J.R w.OX3XJ l <XW 9 J.9.h ",
"J 7.) h b L.r.+ B 0X/ x &XL j.MXnXzX{ w.,Xl ; > K g J ^.L.G.l 3 3 a ^.P.L.T , ,.a % b 9X0...zXmXMXj.;.;Xn e.0Xx < 9.&XH J L.t.j ",
"9 F.1.W 7 e.+XE # ,.T / =Xs uXMXkXdX} 9. X6 - >.9Xw.j K T.F.H.h i G.I.T.K n J.9X>.  9 %X9.' dXhXlXuX] =X0.1.:., / <X9.7 w.e.D.v ",
", 8.W 6.h G &XH.V 1 v w.H.X.&.yX$.@.3 F.9., H -X&X&XJ.j W :X9.n x F.T.1.J J.&X-X=XK - w.&X8 [ $.j.| X.w.6.7 - :.+X2X7 T w.Y.T < ",
"7 9 1.F.J 5 E &Xb.l b F.H.H.K ;.-.~ ^ J.,.  6.}.n 1.J.%Xh W Y.8.,.T.K h J.+X1.v @Xe.X T OX^ ~ 5.=.K >.F.L.h v Y.2XY . ,.%X9.7 8 ",
"v 7 W 8.I , h / 6X0.W 8.D.w.e.%XT.+XoX+X6.2 <.K z , ,.#XoX9 Y.T m J.k w.J.8.1 l -.6.2 F.J.#X-XT.F.L.K.H.J.G w.7X8.7 8 W J.b j e ",
"b ,.g 6.K 7 6.v {.P W w.H.F.w.V V V T I b < g 8 2 l 1.&XOX/ 8 7.1.g 6.J.-X8.v 2 g 2 2 =.L W T x :.9.w.e.-Xw.P / G ! w 8.,.e F.w ",
"K ,., 1.K e 9.W o n 9X}.K g 2 7./ I e e 8 9 1 b T 1.F.w.OXJ.v 8 9 v %XOXJ.e.9.,.n 2 2 2 e A G e.q., x Q %XeXj : 6.w.< 6.W 9 e.w ",
"I J h 8.H l W J.l T K G I I 7 <.6X@X6.,.6.9.e.-Xw.&X9.J.9 b v 9 g h b h %Xe.3XJ.OXJ.J.,.J.e.@X6X7.7 n W J W K c &XE w ,.8.v W b ",
"G ! J 6.J 9 8.,.4.h O D.=X XG : Y D.L.8.w.J.J.8.OXE J 7 < , 7 T.:X8 & , 7 / ) #XOX#XOXw.H.J.E.` - T OX8XH.- H q.w.w.8 8./ G H.v ",
"P J.W 8.K h 8.,./ J.W j / &Xw.T < j J.OX6.v H J v 8 , l < v &X~ ) L.n 6 7 a 2 =.T K K e.*XJ.v 1 ( J.&XW j w.+Xw.8.7.2 1.H.) OXh ",
"P W F.7.8 b 1.8.8.T 8.,.8 H Y.H.8.v 6 8.L.6.7   p a s < W -X;.@.&.3.OX! , 3 3 a * 8 ( oX/ 6 v J.J.Y.J 9 6.9.W 9.w.F.9 n J.&Xw.v ",
"W H.W 7 + v v 9 7 g l 8 , - l ,.F.9.K 0 h w.8.1.I 4 = 9.! ! | gXsX[ / u.Y.= r ,.) H.6.G h W J.J.,.9 & 8 v v 9 h 8 :.w   v D.J.I ",
"K H , 8 l , 9 K K H b b K J 9 , 9 W L.W K e G E P 3 & + W./ { vXxX] w.v.. t e ^ Y v v J H.L./ 6 7 e K ,.=.H K W E 7 , m 7 + 7.v ",
", , v K 2 , 8.8.W 8.8.8.9.9.8.I j , , v L.H.6.I T c I P k |.t.k.k.<.#X7 I 6.x ! 7.8.+X&XW 6 0 J 6.9.J.e.9.9.8.6.J.2., 2 1.9 7 , ",
"8 J 7.l < ,.Y.,.I 0 5 8 I 6.6.6.6.,.v 7 7 J W w.8.w.@XOX2.Z |.B v.}.7 3.OXOXJ.&XH.W v 7 q K 6.) w.8.6.K 0 7 G W w.H.<.< b 9.W e ",
"6.,.K , W Y.6.w.,.J 6.7.6 7 1.9.7.w.! 2.=.;.e j U I ~ W 3.6.S +X! 7 ,.I.e.W I A 9 H K ,.D.D.9.7.9.6.7 7 9.1.K w.w.H.Y.b 7 ,.,.9.",
"H W h , J I J J v H b w v 7 , 8 S 9 e 9 v 8 v 6 , 1 - l 6 9 7 I K 0 S 7 1 9 , < 9 G v w e e h D g - 8 K b n K n E P ,.K . K r.w "
};
