/* XPM */
static char *f9431004d82249f6dbc05d58177422a7OOHzgjw6nV0yLKcG[] = {
/* columns rows colors chars-per-pixel */
"64 64 248 2 ",
"   c #1D1A19",
".  c #24171C",
"X  c #251B1B",
"o  c #2B1C1C",
"O  c #2A1917",
"+  c #25221C",
"@  c #2C231D",
"#  c #2A261A",
"$  c #31241C",
"%  c #332B1D",
"&  c #3A2A1A",
"*  c #332616",
"=  c #373318",
"-  c #1C1622",
";  c #221523",
":  c #261B23",
">  c #2C1D24",
",  c #2B1D2B",
"<  c #26172A",
"1  c #321E25",
"2  c #321E2C",
"3  c #381D2C",
"4  c #2C1D34",
"5  c #2D1D39",
"6  c #291535",
"7  c #321D33",
"8  c #341C38",
"9  c #2D2323",
"0  c #2C2A23",
"q  c #2D232B",
"w  c #2E2B2B",
"e  c #252323",
"r  c #332425",
"t  c #392525",
"y  c #342A24",
"u  c #3A2D24",
"i  c #33252C",
"p  c #39252C",
"a  c #342A2B",
"s  c #3B2C2C",
"d  c #35322C",
"f  c #3B322D",
"g  c #393427",
"h  c #2D2233",
"j  c #2E2A33",
"k  c #2E233B",
"l  c #2D2A3C",
"z  c #332433",
"x  c #3A2534",
"c  c #342A33",
"v  c #3B2B34",
"b  c #34243B",
"n  c #3B243B",
"m  c #352A3B",
"M  c #3B2C3C",
"N  c #353334",
"B  c #3C3232",
"V  c #3C3B35",
"C  c #35323B",
"Z  c #3C323A",
"A  c #3D3B3A",
"S  c #373830",
"D  c #2F3020",
"F  c #412E2E",
"G  c #41332C",
"H  c #423A2B",
"J  c #422D34",
"K  c #432C3D",
"L  c #442A36",
"P  c #423434",
"I  c #443A35",
"U  c #4A3C34",
"Y  c #43343C",
"T  c #49353C",
"R  c #443B3C",
"E  c #4A3C3C",
"W  c #483537",
"Q  c #533D3D",
"!  c #3D4037",
"~  c #45433D",
"^  c #4B433D",
"/  c #4B493C",
"(  c #474337",
")  c #52483E",
"_  c #361E4D",
"`  c #371D49",
"'  c #3B1C5C",
"]  c #391A56",
"[  c #292D42",
"{  c #352442",
"}  c #3B2442",
"|  c #352A43",
" . c #3B2B44",
".. c #36244A",
"X. c #3B244B",
"o. c #3B2B4B",
"O. c #372A4B",
"+. c #3D3143",
"@. c #3D3448",
"#. c #3C2253",
"$. c #3D2C53",
"%. c #3B265A",
"&. c #3B355A",
"*. c #3B1A65",
"=. c #3C2565",
"-. c #3E2F6D",
";. c #421E5F",
":. c #401C4C",
">. c #422D43",
",. c #422C4C",
"<. c #43274C",
"1. c #433443",
"2. c #493543",
"3. c #443B43",
"4. c #4A3C44",
"5. c #43334B",
"6. c #49354B",
"7. c #443B4A",
"8. c #4B3D4B",
"9. c #513E42",
"0. c #523E4D",
"q. c #422C54",
"w. c #452C5B",
"e. c #472758",
"r. c #443553",
"t. c #4B3552",
"y. c #4C3B53",
"u. c #4B335B",
"i. c #4E3C5C",
"p. c #453659",
"a. c #503D54",
"s. c #533B5B",
"d. c #563759",
"f. c #502C5A",
"g. c #411B65",
"h. c #421E77",
"j. c #44226A",
"k. c #4C2C6C",
"l. c #482665",
"z. c #502C6B",
"x. c #4A3863",
"c. c #573A66",
"v. c #4E2B73",
"b. c #49257A",
"n. c #522C75",
"m. c #4A3475",
"M. c #583677",
"N. c #454343",
"B. c #4C4343",
"V. c #4C4A44",
"C. c #4C434B",
"Z. c #4D4C4C",
"A. c #454646",
"S. c #524445",
"D. c #534B45",
"F. c #52444C",
"G. c #5A454B",
"H. c #544B4C",
"J. c #5A4D4D",
"K. c #5A4A43",
"L. c #545144",
"P. c #5C5245",
"I. c #54514C",
"U. c #5B524D",
"Y. c #57584A",
"T. c #4E4454",
"R. c #4E4A53",
"E. c #474556",
"W. c #534453",
"Q. c #5B4555",
"!. c #554B53",
"~. c #5A4D53",
"^. c #54455A",
"/. c #5A445A",
"(. c #564B5A",
"). c #5B4C5B",
"_. c #555353",
"`. c #5C5353",
"'. c #5D5A55",
"]. c #5D525B",
"[. c #5D595B",
"{. c #545759",
"}. c #62524E",
"|. c #63594F",
" X c #615444",
".X c #634C5C",
"XX c #664F57",
"oX c #625354",
"OX c #6A5555",
"+X c #645B54",
"@X c #63555B",
"#X c #6B555C",
"$X c #655A5C",
"%X c #6A5C5B",
"&X c #6A5856",
"*X c #725D5C",
"=X c #705A5A",
"-X c #614947",
";X c #5A605C",
":X c #6A605B",
">X c #74635C",
",X c #554363",
"<X c #5C4C63",
"1X c #5A4766",
"2X c #5D5263",
"3X c #5E5A62",
"4X c #545D62",
"5X c #4C426D",
"6X c #624C62",
"7X c #654A66",
"8X c #635462",
"9X c #6B5464",
"0X c #645A63",
"qX c #6B5D65",
"wX c #63546A",
"eX c #6B556B",
"rX c #665A6A",
"tX c #6B5D6B",
"yX c #725D62",
"uX c #735C6B",
"iX c #6C4B74",
"pX c #6B5774",
"aX c #735B72",
"sX c #745975",
"dX c #5C6063",
"fX c #6E6369",
"gX c #746364",
"hX c #74636C",
"jX c #786768",
"kX c #6F6273",
"lX c #7B6371",
"zX c #7B6779",
"xX c #816979",
"cX c #877276",
"vX c #4A2887",
"bX c #532D83",
"nX c #532A8A",
"mX c #4B3985",
"MX c #593386",
"NX c #542A95",
"BX c #553993",
"VX c #4F3890",
"CX c #623788",
"ZX c #613793",
"AX c #5138A5",
"SX c #5A45AB",
"DX c #534791",
"FX c #846D89",
/* pixels */
"m C @ % @ X O r r r i s u u a c M x v F p J W a a h m h h q B 4.C.V X w j | O.O.} M K J x x K z v i & = g % a q a o o o % 0 C j ",
"w Z.V.^ E ^ s O i p v s y $ r i z , 1 t J v i M m +.l | z F.8XZ.N.!.'.a m +.| r.5.z v J x i 2 v p r y y a y d i . s T E / V.Z.C ",
"0 V.Z.B.^ H.R o i i , > z z a i y f G r i 2 n  .b b | 8.8X!.x x O. .].`.A M b | M n x 9 v v Z z p b X.{ 5 : y y q 3.!.C.~ / N.0 ",
"+ ~ A.N.~ D.U @ r p x x x z v B g y r V 4.C.(. .; m 7.2X/., <._ ] _ M H.~.C.c z 1.0X4.1.a i w V B m #._ } p s t q 7.Z.C.~ ( ! 0 ",
"D ! A.N./ ^ U y p p p c x p s c a ! H.`.!.].8.: Z H.oXF.7 X.g.v.bX*.>.r S.$X4.q q C.8X~.`.V.~ w a a x n v t F u 0 N.A.~ ~ / ! 0 ",
"e V V.B.V.D.D.g q 9 9 i z M Y R [.Z.[._.].W.: . 9 U.}.J.a._ g.ZXNXj.8 9.K.B.+Xi > ; (.R.D.Y.'.'.E R P p t $ u $ S V.L.~ / V.V 9 ",
"+ w ! ~ D.H.!.Z + y v m O.p./.'.A.S Z.I.T., h 2XB.r B.Q.7Xf.g.nXNXg.t.oX~.F.r F.].q < ~.V.Y.V N.'.H.4.v F G G O B V.~ / N.R s @ ",
"0   e 9 d P H.C.9 y q m ,XwX).R X S Y.B.@.< <X8XM c z 1..X7Xl.bXnXj.d.~.T q c Z 3X!.k h '.L.N.  S J.@X8.s $ y # B.B.g g q X X 9 ",
"2 c o 9 @ 9 q a @ e N _.0XT.w 0 # D.L.^ b q.r.5 k +.$.< Q.6Xe.v.bX' /.).q  .Z h m 2Xi.: 4.H._.q : a Z.[.Z.N 0 # d r i 1 r 1 t r ",
"p < p r a r 9 y 9 S [.3XN.j j N c U.) I 4 $.{ 5 7.r.o.o.M @Xi._ m.%.6X4.m k @.5.h +.5.b a `.~.c q c m @.4X_.S + @ i 1 p 1 v p r ",
"p 2 2 3 a o N q B _.3XE.[ @.+.j 3.).`.1  .5 b 1.).<XO.p.M ).s.w.l.w.<XZ | | ,X<X+., +.M i F.8XZ i +.| l E.4X_.N r s p 3 3 x r p ",
"t p , x p a v c !.[.7.k m.5X@.q 7.9X4.Y 4 } c ].[.kX,XO.c W.^.X.$.i.^.c | E.2X3X/.m M } n 2.qX1.q 5.5X-.[ A.[.I.Z c x p n , t s ",
"& O L n z Y h W.].A.l =.SXAX%.l C./.8.4  .b !.$X].!.<Xp. .t.<Xb q.i.^.4  .3X2X!.'.!.z >.M M 8X0.i O.BXSX&.l A.[.T.m a v o.8 r & ",
"& O M n B v +.rXB.w m m.AXvX..w H.8XM m 5.6.@XoX`.$XkX1Xo.t.<X5.q.i.T.h T.rX0X_.H.$XM  .5.4 @X~.c ..b.VXx.C N A.rX7.a Z n b 1 & ",
"p p r c d a !.H.g 0 a +...X.M r H.qX{ |  .].@X`.'.jXfX<XX.x.wX,.<.c.t.m rXH._.+XP.U.!.M 5.4 @X~.c  .O...5.Z a d _.I.A c z n 1 & ",
"z i a f 0 B.`.g + 0 a a i i t a ^ @X@.5 2.].oX+X+Xd c kXu.k.sXq.<.7X5.M ].9 d U.+XJ.$X+.m  .J.S.i c v z q c a + S _.Z.w Z v 1 p ",
"z i y y g _.~   0 y A N.C.~.J.S.X I 8.< F.oXoX}.G t o 2.,X` 1Xw.e.7X1.T ^ u P a J.~.#X8.5 1.( + H.~.(.!.!.V.V 0   A.{.Z Z v q z ",
"z q a y ~ H.N R V.L.`.].].@X$X$XZ R C.a H.+X%XP J U u p } i.u.w.e.1X5.1 u I B.s T XX$XC.< W.^ I `.wX2X(.].`._.'.Z.C.[.R y V q i ",
"i i c @ V.U./ U.L.U.H.4.5.} m  .@.T.!.r D.U.oXB v K 9.s 2 d.1Xw.m.M.c.b F U W s W @X&XT i !.^ R M m b +.3.Z.I.V._.Z.[.`.f I a B ",
"c v a v H.Z.U.!.4.Z q 4 }  .} ,.5 m , X U.%X$Xp 1.v T 2.v /.sX<.z.k.d.2 P H W ^ v %XgXf 9 i q i z 5. .h h , c C.Z.$XH.U.V B v s ",
"M v i W `.~.C.z 5 ..X.o.5.>.M W 8.C.4.B d ^ ].Y z 2.Y F.L -X9Xf.f.c.Q.p W W W P B +XJ.W J.J.].C.8.Z M +. .| k < c W.`.oXE B P v ",
"v v c C.oXS.q 4 p.p.$.{ M T K.&X.X0X%X:XoX~.3.q 2 v 0.2.L xXiXf.f.iXlXG.T P V s s oXS.S.+XJ.@X].].).6.M { { { E., : R ].C.p z B ",
"s i v `.E . 9 W.^.o.b K S.P. X X}.+X X|.fXhX].@X0.Y 9.L XXxXiXf.n.M.sXOXv P K.D.D.|.U J.&X$X$X$X@X`.oX!.+.h m 5.0XV 9 R C.+.M M ",
"a B m Y > > '.~.b 5 1.~.}.P.) P.U.W H g f ^ ~.$XyX*X9.L yX9X:.M.M.l.sX=XT `.gXU.|.K.t G f B T ~.+X`.H.'.].y.b 4 ].$X9 : n m M m ",
"M q 5.z , a Y c k 7.2X].`.) +XU.s s & H s B B.^ H.+XjXgXQ L f.M.ZXl.7XxX-XQ Q G.&XS.1 p p s s P `.+XD.!.].pXi.5 M R v h q m +.m ",
"m Z h k (.H.q M | r.2X^.~.@X+Xv K T U U U B.oX:XP P oXjXxXQ.f.M.n.z.L OX-X-XW *X#Xp 2 M Y P W a B $X'.!.rX<X| @.h Z 8.tXm h c c ",
"m l m 7.$X].M 7 $.{ $.x.wXtX@X: n K Y W 4.E G ) U }.S.G.xXxX7Xx d.-X-XQ yXT OX=X9.t T L x s s @ ~.8XfX3X7.o.>. .b 2.].].!.: a B ",
"j q !.].4.!.8XM 4 { 5.o.O.^.kXwX .x  .1.0.T s U >XyXlX8 K XXL XXxXxXQ F K a.yXOXF F L T v s s J.kX].7.Z M M z 4 1.!.8.C.8XB.+ g ",
"# ~ !.F.q T.wX).Q.R v z m 5 O.5.6.z n } >.W.$XxXcX9Xx n 6.L #X=XOX) n n 8.uXuXE Q >X-XF p i 1 a h O.b z Y B P K.~.G.Y z F.U.B o ",
"y D.H.: +.` w.x.).eX@XW.i.t.5. .M Y /.eXaXxXzXaX/.>.6X0.K .XhXyX9.Q.9X2.eXaX7X3 d.9X=X#X#X0.S.7.8.@.i././.Q..Xd.s.t.X.b , Q.E 9 ",
"R !.z } ..j.] *.' e.w.c.,X,XwXtXhXhXhXhXuX9Xc.l._ f.xXyX2..XzXa.<.zXxX&XE 6Xz.l.;.f.7Xd.7X1X2XW.Q.^./.s.u.e.g.*.b.h.bX' q.n F.s ",
"B.8.h ..v.bXvX-.j.%.] q...}  .M n K p J 2.} g.n.M.;.XXcX=X2.q.w.x.,XjX*XOXK l.CXn.v.<.} } ,.b M v z } ` %.e.v.b.NXNXNXM._ 7 !.E ",
"H.5.b _ vXNXnXb.l.e.` } X.X.X.<.<.>.>.8 L f.n.MXCXn.L *XcXlXq.x.x.} 2.gXgX6Xl.MXn.l.<.K K M 3.c v K m { O.X.e.' vXvXnXn.X.b ).3.",
"A $X4 <.g.b.*.g.` ,.y.y.^.7XiXsXpXpXaXaX9Xc.g.g.j.f.d.Q gXcXFX,.t.eXQ.2.9XeXz.] l.1X7X#X.X8XwX@XtX8X<X1X<X8.7.u.] *.l.w.m x rXc ",
"  '.B.> >.6 t.7X8XXX).)./.a.t.t.5.Q.Q..XyXxXxXiX:.G.xXOXK uXQ.9.yXlX.Xx 0..XW Q.6XeX9XQ.).a.M M b o.o.7.W.`.oX)./.t.8 8  .rXT.h ",
"9 9 &X9.O G.J.F.F.M z M M z x v 1.p O t L T OX*XQ *XuX0.>.L -XjX>XW x K K L OXOX#XQ.9.K z 2 > 5.y.r.5 b c v R D.XX.X4.2 (.2Xq q ",
"w 9 D.D.B.H.Q.v , b |  .M B.].$XJ i s W E P F F =XxX=XL L 9XlXyX) K.XX2.L OXOX}.W i Y 4.T G s P 8XkXH.A k @.{ 4 b ).(.y.rXN 9 D ",
"d w : _.H.4.F.z o.O.$.i.].0XH.r , v U G U ^ P U *XOXQ xXK .X7X>.L uXlX#XXXG.U W Q.W Y 1.U U P y X D.+X:X@.O.O.&.h 1.!.rXC.w d D ",
"N q 4 | H.`.h k | r.].@X!.F.I @ x 1.E Q E B ( $XjXs -XgXOXn e.z.n.<..XgXgX:X) P H.F.2.4.E U U W d L.L.U.R.<Xy.{ Z a J.R m , N g ",
"d c l 4 z i ^.m { i.].C.R F.H.Y < 1.v g v y B.jXoXS.E OXyX.X;.MXMXv.n u &X>X%X&XC.Y 9 i P t t s J.|.D.`._.).@.l Z C.a + m +.c c ",
"y c b  .< c kX(.5 h v B.H.U.~.J.4.v u G f y :XgXD.$XS.E gXeXz.v.nXM.eXG.t E +XjXfX].].C.P E W Q.oXD.U.~.y.| 5 M @X`.: q 7.Z M b ",
"s i M ).7.: c ]. .z > v }.$X~.!.oXJ.|.+X`.S.fX'.B.H.E p OXuX7Xl.n.M.eXuXW G P ^ :XfXeX0XqX$X@X#XH.!.].8.{ { 5.<XC.h : _.)., M  .",
"s v M 8.!.B.h z r.M z z b >.).8X).+X:X|.^ H.jX!.a Y 2.Y 0.uX.X} ,.,X6X#Xs E B.d z Z.!.`.%XoX8X<X).i.p...m o.@.7., j H.].8.m o.} ",
"p v v 4.~.Z.B.q , z z M 5.} { 5.F.F.U ^ I '.].q c Y 1.8.K eX#Xv K .X9XW s U S.B M ~.C.P P Y 0.r.| O.q.q.,.>.z , c (.].`.Z , >.} ",
"x x s I Y.V.L.D.^ u p n  . .o.{ b z q r B $X@Xa P W Y 2.b 8XaXb K wX@Xp U U u f P `.K.f 9 v { {  . .,.M z z M B.[.U.`.V.y s 1 J ",
"x p g y H._./ Y.) D.C.1.1.Z  .5.^.i.W.z R J.$XE s U R v x i.zXM n .XF.p u U P P t H.+XP.s W.E.y. .b z 1.8.F.U.U._.Z.Z.V.@ y s i ",
"x o y g N.R.N N.H.H.).~.W.`.$X$XR 6.i.k 0.$X}.T s W s s x M lX6.1.8X6.v s s 4.v Y K.$XF.q T.~.B.fXqX).@X@X`.J.Z.V N _.A i a > J ",
"r 1 $ s m {.7.  0 a V R 8.D.C.^ X B 5.{ 1.8X~.K.y G X S.6.1.rX7.7 rX1.v ].r p K $XoX`.F.z T.C.X N.W.F.C.R s y +   N.[.q j v 1 i ",
"r o r v i E U.S + y j w w w r q ~ ].+.k 5.].H.J.+Xf y fX| 5.kXo.x rX .M kX~.B `.+XP.$X2.b +.].4.r a z , B y # @ S `.~ q Z i > i ",
"t r 2 x r P P.L.S w N @.| | v s Z.].m |  .!.`.H.D.+X$X8Xm y.wX5. .^.y.b 8X].[.U.|.U.Q.M 5.m 3XH.q M ..$.C N a d U.H.d r b c r t ",
"* r ` ` x s 3.].R.m l &.vX-...v !.).b o...5.).H.L.U.fXR.m 6.).1.m 1X8.m 8.tX8XU.U.oXM  .1. .].H.c | m.mXE.l S A.wX1.t v b n r % ",
"* r ` ..v a i C.{.E.| O.BXmX..i B.~.m | O...^.`.`.Z.qX| z T.8Xm 5 <X8.c c 3X`.W.).F.x >.M 1.~.C.q $.mXDX&.[ A.4XF.z v L } 7 r % ",
"& o b 8 p t @ S Z.dXE.l &.p. .z I U.Y z ,.5 Z Q.`.).,X{ | ^.^.o.X.p.2Xa c 7.qX(.).M b } z 2.0X4.q 7.5X&.[ E.{.Z.G 1 L L } 7 r u ",
"t o 2 z r y y 0 B !.8XR.m b v c v J.R > ,.{ 2 Y ).(.O.$.| <Xt.o.%.p.0Xa Z m (.].Y , b  .p H.%XR w C @.[ E.4XY.! t 3 3 8 8 3 o s ",
"o $ 1 i r y y % 9 d W.[.C.c a q c Z.S.y z 1.z z 5.y..._ | eXy.` %.k.2XR i M M 8.h m }  .c `.!.w a C l E.4X4X! D 9 p 1 p 3 p 2 > ",
"o p o @ 9 o % y + 0 v C.].Z.a : 4 Z.L.I , 6.6.z h  .$.5 <X.X..e.b.=.<X~.: Z m h i t.t., R H.Z.e e N R.{.{.! + + a p r o r > p , ",
"9 : . 9 y B S.B.@ y a c 8.2XH.c - ! L.L.q : ^.!.>.M 5 } .X6X:.j.bX*./.Q.Y i z Z @X2X, M H.L.N e S A.2X(.d % y @ C.C.S D 9 : > r ",
". p Y 4.^ D.S.B . > r q m 8.H.H.@.N / Y.C.q , ).F.7 6.Q..Xd.g.nXnX*.6..XQ.C.i 4.$Xv , C.L.I.N.Z.{.I.R.Y # * $ o A _.V./ ~ A i o ",
"o P B.B.^ / / a a i r r i a B 4.I.L.) / `.C.; , , oXG.Q.a.6 n.vXnX=.8 T F.~.@Xq X . C.H.B.;X]._.V.S v r 1 r t @ y V.A.A.N.B.P @ ",
"% I B.D./ ( H $ i 9 , p v c i w 0 ( / L.!.~.7.< z 4.S.9.1 <.l.b.b.l.,.> T ].W.v < R !.`.[.L.N.j j w c p p 3 t $ 0 ! A.A.N./ I r ",
"# V ^ ~ / V.R # o 1 7 n { { z B B w X a Z a.6XY 9 r S.D.S.; #.] ] _ > C.].Z.z ; v !.F.E B.a c B C l o.} n 2 1 r 9 @.C.~ ! / R @ ",
"# / V.( A.Z.V X r r x 3 8 5 z q q s v a p z m c a a 9 E ~.(.b 4 { { `.+XE c - , z z i o p v B c j b { b b q i p e 7.R.N.( L.V.0 ",
"j N.V.~ ~ ! a . 1 1 1 3 t u i 9 a > > r v v 9 v C q j q j _.!.4.4.].V.y c e M  .M i L v p r 1 p a a i a y y @ > : v E ~ ) V.C.j ",
"| C 0 + +   X 9 2 i t u & & a c s p p p p s s s c c k h h : d / ~ V + 0 d N  .| M M x p x v v s y u % y % u r r r X X @ $ 0 C m "
};
