/* XPM */
static char *c773f8688a394ebe9e5e53669c69fdffzbhGuzekdIldKRjT[] = {
/* columns rows colors chars-per-pixel */
"64 64 177 2 ",
"   c #0D121D",
".  c #111724",
"X  c #141927",
"o  c #141728",
"O  c #151D2C",
"+  c #191E2D",
"@  c #161D30",
"#  c #1A1F31",
"$  c #201F2D",
"%  c #17212E",
"&  c #1C242D",
"*  c #162233",
"=  c #1B2335",
"-  c #1D2834",
";  c #15253B",
":  c #1E263A",
">  c #1D2A3C",
",  c #1E313F",
"<  c #202A2C",
"1  c #222C34",
"2  c #21263B",
"3  c #222A3D",
"4  c #282E3A",
"5  c #233236",
"6  c #23333C",
"7  c #28343C",
"8  c #283A3C",
"9  c #1B2741",
"0  c #162840",
"q  c #1D2D43",
"w  c #1F3044",
"e  c #1E3249",
"r  c #242D44",
"t  c #292F46",
"y  c #262E48",
"u  c #292E4A",
"i  c #253146",
"p  c #293246",
"a  c #273945",
"s  c #2C3A46",
"d  c #25334A",
"f  c #2B344C",
"g  c #25394E",
"h  c #2C394D",
"j  c #323C44",
"k  c #31364E",
"l  c #323A4E",
"z  c #253651",
"x  c #2C3651",
"c  c #253A51",
"v  c #2E3853",
"b  c #2F3952",
"n  c #2C3B52",
"m  c #2E3951",
"M  c #2D3C53",
"N  c #2B3956",
"B  c #2D3854",
"V  c #2F3954",
"C  c #2F3855",
"Z  c #2E3A54",
"A  c #2F3B55",
"S  c #2F3A56",
"D  c #2C3C56",
"F  c #2C3A52",
"G  c #273A58",
"H  c #2F3A58",
"J  c #2D3A5A",
"K  c #2E3C59",
"L  c #2E3D5A",
"P  c #303751",
"I  c #313751",
"U  c #303752",
"Y  c #313950",
"T  c #303B51",
"R  c #333B51",
"E  c #313852",
"W  c #323852",
"Q  c #323953",
"!  c #303A53",
"~  c #363B51",
"^  c #353B53",
"/  c #313C52",
"(  c #313854",
")  c #323955",
"_  c #303A55",
"`  c #333A54",
"'  c #313B56",
"]  c #303B57",
"[  c #333A56",
"{  c #343A54",
"}  c #323C55",
"|  c #303C56",
" . c #323C57",
".. c #323E56",
"X. c #323B53",
"o. c #383F52",
"O. c #383E53",
"+. c #343B58",
"@. c #313C58",
"#. c #333D58",
"$. c #323E58",
"%. c #323D5B",
"&. c #353F59",
"*. c #373D5D",
"=. c #333D5A",
"-. c #393F59",
";. c #383E59",
":. c #373F63",
">. c #393F61",
",. c #274056",
"<. c #2D4156",
"1. c #2D415A",
"2. c #344355",
"3. c #3A4456",
"4. c #364852",
"5. c #374258",
"6. c #37415A",
"7. c #31405D",
"8. c #32415E",
"9. c #33425C",
"0. c #394158",
"q. c #3A415D",
"w. c #3B425C",
"e. c #39435F",
"r. c #3B425F",
"t. c #38445E",
"y. c #3A445F",
"u. c #3E455F",
"i. c #3A435D",
"p. c #3B4A5C",
"a. c #2E4562",
"s. c #314061",
"d. c #334060",
"f. c #334062",
"g. c #334462",
"h. c #384160",
"j. c #3A4360",
"k. c #384661",
"l. c #394462",
"z. c #3A4563",
"x. c #384663",
"c. c #3D4460",
"v. c #3E4766",
"b. c #3B4563",
"n. c #364B65",
"m. c #3C4A64",
"M. c #394769",
"N. c #354C6B",
"B. c #3C4A6A",
"V. c #3F5167",
"C. c #3D526A",
"Z. c #3F5473",
"A. c #424556",
"S. c #41445B",
"D. c #414E5F",
"F. c #404660",
"G. c #404763",
"H. c #424765",
"J. c #414762",
"K. c #414864",
"L. c #424965",
"P. c #424966",
"I. c #414B66",
"U. c #424965",
"Y. c #4A4E67",
"T. c #464D69",
"R. c #444E69",
"E. c #424C6A",
"W. c #415161",
"Q. c #4A5460",
"!. c #45546C",
"~. c #4A516E",
"^. c #4A586F",
"/. c #475071",
"(. c #495771",
"). c #445871",
"_. c #4A5B74",
/* pixels */
"p ^ K.y.q.0.0.q.c.h.:.8.f.f.d J B z z J S +.+.= l c.0.( +.( K r r d u z z x x x S f f : 2.F.k.M.k.M.q.*.A } 6.} $.} } K } #.q.3 ",
"T.f r f y x d f ( z z S %.S z d r d f f z d f 3 c.+.z m p r d r t p u f p x ( ( ( ( m = c.h.x f f f f S d p d f f f f f d d b = ",
"T.x q r p p p y p d d d f z f 3 r u p f f f f 3 W p ( b d y r r p p f d f f b f z W x : { p p p d q r i r r r p f d p i q r d = ",
"K.f r p f k f p r f u p p f r t p f z f f h S r ( d f p p d f r I x d p z f f z f p f = x f f d p p r d y d y d f f f f r p d # ",
"E.d r f } n / n p r u d d p d p f p i p r t b 3 7.p f x p p y r W z d f f f z z p f d + S d p d r p p u y d d f x S f p d d d = ",
"K.f q p h / W f x p r r r u f f r r 4 r t r y = t.p f f d i y r l b f f z f x f l W y = S d p p r d d y r y p f W &.x f p r d # ",
"K.h q r f / W ( ( z r r r u p r d f b h f f d = L i d > q p d r k } h f z f x b ~ b r : z d r i d y y C d i p z b } x W ( d r = ",
"c.d r p f h W I W W p 2 r f t p S d f f f f f : ( p f r 3 r d r f ( f f f f f x W r i = I r r u d r p f f r p d b S b b ( d r = ",
"q.p 3 p b x b I W W f i 3 3 3 p m z W W f p d 4 +.p f f : y p r o.( h f f f h W ( 6 7 2 l r r p p p p f i p d d W S b S z p i : ",
"v.z r r x b x x l f f t r r t 3 f } / b d r h p 6.p W x p : d r p p p f x h W l W 6 6 i j p p p s k p p f r p p f h S f u r > # ",
"v.S r r p f p p p t p t 3 r r r : d } b f p z k v.x b h f y q # 3 1 > d C S x S p 3 p i 4.f f b k I k f f i d d f z p r i d =   ",
"M.K d i r p r r r r r r i p p f p - m A ( b z 4 7 p r 3 3 : r 2 r r = 2 r r r > 3 4 p 8 <.l i i 4 r r r 3 : > i r r r 3 = # O   ",
"M.%.d f p p r p 3 r r p f f f f d 3 r +.$.n S 4 4.R.l.h.S b $.q.;.q.c.h { S.v.p (.x.9.n.C.C.C.Z./.a.g.d D 9.g.n.g.a.g.a.a.c g.> ",
"h.$.f h f h f d r r p l W p i r r 3 p &.} b h 5 v.C f d q r r r f b f p - : r r p.d e c ,.1.1.1.a.L e > e e g e g e g g d w e ; ",
"h.x I b h / W f d p f / b y 3 p r r I S A $.b 1 q.z z f r i y r r f f f 7 4 r % 1.d g A 1.7.2.9.<.1.g q w c c c d g d e d w w * ",
"g.z f p d b b I f W I / h r p > : f f h b b } p h.f d r r y d i r r f k s p f : g.z g d ,.<.1.1.1.G d w q e z c g e d e i w i % ",
"g.( f f d p y d f f k f f d 3 q f f p l k f b r q.x r r p y p y 3 r p f f f x r g.e e c A 1.1.1.9.,.i d q w d e d e i i , w g % ",
"x.x b / b p r r r d p d f 3 > f u f k k k p ( 3 q.z r d p y r p d p f f k W x r ,.e d c ,.1.1.1.1.g g g w w w w w > w w w g w O ",
"M.S W W f r r y d r t d d 3 u y u p f k f k ( 3 H y r p f p f t r f f h f k f > A d g c ,.7.<.1.1.c z e q , w d c i 5 i d d e > ",
"B.%.p f d r y p f f t r r > f d d t p p p f +.3 d i p p +.S z y p k f f f y y : 1.g g c G 9.1.<.1.,.z c w q w h c <.6 6 e e c w ",
"B.#.p r p r f p I b b f r : d p f p p p f k ~ 3 } r p f / W b f l l f f f y d = 1.c c g <.1.7.7.2.c g e e q d g <.2.z w c e G w ",
"M.x f r q r f f b / h h f > r r t t k s s k I 4 h > p f W #.^ k f f f p h p r = n.g c c 9.,.<.<.D c g e w e ,.n 2.9.g i g e c > ",
"B.J x y f p f J ( } A S $.r r p p p f k f f f 4 b i p d f W ( S B h r d } f f : a.z d 1.1.1.c G g c d d w g c ,.c 2.h g e z e > ",
": 2 3 = = = + = 3 3 : : : X % 3 2 = + + 2 4 1 < 4 1 = : = = r = > : : r : : : * 1.z e c c g g e e d e q d m D D c ,.n g e e d * ",
"A.Y.r.q.h.&.c.K.v.M.B.R.v.r 0.J.y.t.M.q.t.A 7.A %.t.$.8.x S %.= L a.1.L G N h > 9.d e d 5 e e d g d w i g h 2.c A ,.n h e i c ; ",
"L.r.r i d r d f f f A 7.( > r f f h S d r q 3 p f d d d t f S r a.q r p q ; ; & c d g e a g g e e w q g n 2.n <.<.<.1.c d q w * ",
"F.m d r p r p d x f f l f r r x I f f d p r r 3 t f u d r f x r %.f d r q > > * c 0 w d d e w w w d c <.n g g D A 1.,.c g w d * ",
"J.f i i y f y p f z f f p r > y f f y p r r r r k x f r p f ( r L d q 0 > > - - 1.> q d e w a g c c g h 2.c c d g m c h a , g ; ",
"J.f y r p d d d d z z x r y y r y r r r i p p f f t y r f f ( > G q 9 q q ; : * g.g w e w w n ,.<.h g h c g g g g d g d i w g * ",
"y.f r d r r i r p f d f f z f p r d r q d f f k f r r r I W z 2 u ; q q 0 ; 0 > 9.c i > > h h n h ,.g i g g c h i a i g g w d - ",
"0.h > p f p p r r d f d p f f f f d y r d f f l I f : r h x b r z 0 ; 0 ; : 0 = 9.,.c g d G <.c D D ,.d e g g g g g d g c i g ; ",
"r.f r d f f f f d y u u f p f z d f r p d r p f f k f r x I S * ; # * * O * * & a 6 i > > , > > ; - , ; * X % ; > - - * - ; - O ",
"q.f r r f k f f y r r r f p f h f r 3 d p r r r p f I d : f x = S.r.t.$.t.&.6.t.f f t.: S.K.J *.6.*.;.q.*.t.&.} $.%.*.r.#.} 8.y ",
"h.n r r f f l p q r p r d d r r i : r p i r q r r u f f r 5 = & c.d p d d u r r 3 k f 3 O.d d B p z f f f b f r r d f f t 3 f : ",
"y.S t r f b x y r r y d r r r r i i d u d p r r r r f f b p 5 & y.f p p y r d h k p p 2 q.> = y r d f f f p p p d d p d q r d : ",
"t.( r r d f f r q p y d u f d d p d d d r p i r r p d f l h p 2 q.p p p d r ( W k l k 2 &.d r 2 : p b W k h h f p f f p y y d : ",
"f.7.f r y d r r d d r p p f d p d p 6 p p p 3 r r d d f W l h 2 q.d p r r t r C l l f 2 0.q r d r = r p x f k f f h p i y i d = ",
"8.( k r r r r d p d y p p f b r y ( h s t p u d f p f k ~ ~ #.3 B.x f p r d r r x ~ b r h.r y y d r 3 2 3 d h f h l f p r p f : ",
"f./ k p 3 r r f d f d f f l W p r h ( #.x f f f f p f k l o.+.r B.S b d y r r r 3 r f r c.d f d f d y d 4 2 7 k f k f f r p b 3 ",
"g.W k d r q y f x x p f k l W d 3 b l l f x f z B p k I l l ( : m.m b f d i r r d r r = M.m f d f f p d d r & 7 f f p d p p f 3 ",
"1.b f f r r p d x f d ( W l b y 2 f W I W k f W h b h b W ^ W 3 M.f k p d r r p r d y = v.m d m h W / W y d : : p p u d r p p = ",
"6.f p y 3 d p p f f f k l f x > ; S x p f f l / / W k k ~ W x r v.d x f d p r r p f f : g.f b A / ~ / } f d r r > : r r y y f r ",
"J d r = r p d x f I x u x z p r 3 r r p r d f m b f f f f b f = k.i p d d r r p d f m q g.b ( b W f W #.b p 3 3 p r r p y y f y ",
"= : = = 2 2 r r r # 2 9 2 : = # o X O . = : = : q r i r r r ; = g.r r y r i r r y p z y M.x b f b b { ( x d = r f x W / +.f r : ",
"+.+.+.>.:.>.x *.:.:.:.:.:.( J N u >.*.2 ^.W.4.4.9.n.n.n.n.N.a.i &.r r y r y r d d r f : M.x b b b / } W W f > r f W b b x ( p . ",
"+.u u u u x u r u x u u r y r # t u u r B.i 6 i a i w i d d , 1 +.r f f d i r d d r u : M.z S b } h W l x p r : p p f d p p x # ",
"+.u u u u U ( U u C ( u u u t 2 u u x r n.g a h h g d g c d e 3 *.d f p f k u I h p y : c.f z b b h h W x d i r i i p i p p x 2 ",
"*.u t y u u u u x x u u u y t u u f x p V.c a g c c c d c e w r k.d I W z f f x k k f 3 &.u x { } W l h d p r p f d r r d p f 3 ",
"c.u u t 9 u u u u u u u u r u t u u ( 2 P.d h g g g m g g e g r b.f k z d d r f f k k 2 *.u f #.6.{ b h d r r d f f p r d r f 3 ",
"c.k u y y y y u u u u u u t u u U U u r M.d h g d c c 8 e d c q v.f p p r i p y f k x : $.d f x l h W f r i r i k p f p r p f 3 ",
":.u u t y 2 r u y 9 u u 9 r u U u u r q g.i c n g g g 5 d g c 8 q.d r : d x f d r 2 r : %.d f l k h f d r y p r p s f p p p h 2 ",
"J U u u r u r 2 u u u u u y u u y r 9 = g.g <.c c c a e e h D 5 p r : : : r 9 2 3 = = + v.f f f p d p r r d p f l k k p p k f : ",
"*.x u u u r t t U U U U u t u 2 r r r : a.c } c c e a c e ,.m 6 !.E.+.%.y.k.E.v.k.c.h.3 h.d r r r p i 3 p r f x p k k p k s k = ",
"J x u t r t u u u U u u u u u 2 r u y 2 a.m ,.c d d e d h h c i c.d r r f x f h f z d 3 8.r q 3 r q q 3 q p f f p p k k f k I 3 ",
"J C u u u u u u t u 9 u u y y u u u u : 9.8 a i e g e d ,.c w : M.p r r r f b b ( d r 3 1.r d p r i p p r r d f W h f f k x f * ",
"# r r r u t t 2 2 2 2 2 # 2 y 9 2 t 2 3 a > 3 3 > > : : - q O = M.d f r > 3 r y y r f : r : 3 r 3 3 r : : = 3 2 2 4 r 3 3 3 = $ ",
"^ k.t.q.c.v.K.E.>.{ *.J $.t.k.r K.R.B.B.y.M.E.h.K $.f.K K v.M.y $.f f r r f f h x I f 2 Q.t._.(._._.).!.!.!.).2.;./.T.~.T.v.E./.",
"p p f W b f f f y r r 2 i f S t v.p f p f p p r r r p r f l l r $.r p p r p l l O.o.b r !.s 4.n.m.p.D.p.3.2.2.l / S f f f d d r ",
"d p z f b n W ~ u y r r u p f 3 &.p f p p f f f p r p r f o.o.r t.r p i r k l 3.O.O.~ r W.h 2.m.V.p.p.p.p.4.2.s f f k k f d d p ",
"r p p p f b / ~ k k r 3 r d p 2 q.t p t p p k p d r p t r f f 3 m.r r r r p l O.3.^ ( r !.n 2.p.D.p.3.p.4.t.3.h k f s k f i i r ",
"p t p f f f x W k l k t p u p : $.r i r r p p p p d p r r r r 3 x.r p p i r p f I / m 3 !.h n p.D.p.4.4.2.4.t.h p p k s p u p y ",
"r r p p p p p W ~ k k f r r t = z r r t q r r r p p f f u r r 2 k.r k f p r r 3 r d d = 5.h 2.4.D.p.4.5.2.2.4.f s p k f p p r d ",
"p d d f z k p f b x x z p r r = N p p f y f f d f f f k f d f 2 c.p f f f d d r 3 r r * C.4.2.2.4.3.2.7.2.2.4.l k f f f f p p d ",
"3 = : + O # : = r 3 = > : : =   : : 2 : O : 2 # = 2 = 3 q : # + k.d p d d f f p p d r X s i 6 i p i r 6 i i r 1 2 2 : : : = = : "
};
