/* XPM */
static char *_805321163bc40d6ab99a330dc7f4fd5TINWCK1cjU7ivHA3[] = {
/* columns rows colors chars-per-pixel */
"64 64 122 2 ",
"   c #131F1F",
".  c #172321",
"X  c #1A2327",
"o  c #1D252A",
"O  c #1F2A2B",
"+  c #1E3226",
"@  c #1D2A30",
"#  c #21272D",
"$  c #242C2D",
"%  c #233027",
"&  c #27312E",
"*  c #2A342F",
"=  c #252E32",
"-  c #282E33",
";  c #2B2F38",
":  c #263134",
">  c #2B3335",
",  c #2E3936",
"<  c #27343A",
"1  c #2C353A",
"2  c #2D393B",
"3  c #303436",
"4  c #343C36",
"5  c #32363B",
"6  c #38373D",
"7  c #333B3D",
"8  c #3A3B3D",
"9  c #3D4037",
"0  c #34413D",
"q  c #3A413D",
"w  c #41443C",
"e  c #2E3B41",
"r  c #313741",
"t  c #353C43",
"y  c #393D44",
"u  c #353F49",
"i  c #3B3E49",
"p  c #364143",
"a  c #3B4344",
"s  c #3B4A44",
"d  c #35424A",
"f  c #3C444B",
"g  c #3D494C",
"h  c #3C5047",
"j  c #3F524C",
"k  c #3E4651",
"l  c #3E4A53",
"z  c #424545",
"x  c #444A46",
"c  c #41464C",
"v  c #434A4D",
"b  c #4A4C4D",
"n  c #44504E",
"m  c #4D504E",
"M  c #414652",
"N  c #444B54",
"B  c #494D54",
"V  c #454D59",
"C  c #494E59",
"Z  c #455154",
"A  c #4B5255",
"S  c #485E52",
"D  c #45525B",
"F  c #4B535C",
"G  c #47595A",
"H  c #4D5A5D",
"J  c #525557",
"K  c #52555C",
"L  c #535A5D",
"P  c #595C5F",
"I  c #475361",
"U  c #4D5661",
"Y  c #4E5A63",
"T  c #4D5768",
"R  c #4D5B6A",
"E  c #515662",
"W  c #535B64",
"Q  c #5A5D64",
"!  c #555D69",
"~  c #595E6A",
"^  c #555D70",
"/  c #4F6164",
"(  c #4F6169",
")  c #546164",
"_  c #5B6265",
"`  c #55626B",
"'  c #5B636C",
"]  c #566A6D",
"[  c #5B6A6E",
"{  c #5E716F",
"}  c #576570",
"|  c #5B6572",
" . c #566A73",
".. c #5D6B73",
"X. c #5E6D79",
"o. c #5F7175",
"O. c #5F717A",
"+. c #616163",
"@. c #60676D",
"#. c #616B6E",
"$. c #626B74",
"%. c #626C79",
"&. c #637276",
"*. c #697174",
"=. c #65737B",
"-. c #6B757C",
";. c #697780",
":. c #667B80",
">. c #6C7B84",
",. c #727B83",
"<. c #757F88",
"1. c #6B818A",
"2. c #768082",
"3. c #798284",
"4. c #77818A",
"5. c #7B8589",
"6. c #7D888A",
"7. c #758693",
"8. c #7A8C97",
"9. c #7D8F9B",
"0. c #80939F",
"q. c #8294A0",
/* pixels */
"F Z V V C C M t g f k M N N V F F N g N V M M i y g 5 1 c E E T E E T Y F F F c - L Y Y ` ! ~ ! ! W ` E ! 7 r c f M B F Y E Y W ",
"F F Z V C C g > g M M N N N M V N g f f c f i c f c 5 3 v L F C H E T D U ` K t 1 Q ' ) @.| } ! ! ) ` ! H 7 7 N f M V A F F F G ",
"v g g g N B t : y k N V C D A V g s f g f u t t y y > $ y v F L L C N N N V y - ; ! | ` | ^ ~ W W W E W Z , 2 p c M V V V V A D ",
"> = @ = < < < < < u d e e t 2 < : : < < e u t e > 1 $ X - = - > O X X = - - $ o > T ` } ~ ! ! W ~ ! W U H , & : = = - - - = = - ",
"< d Y O.X.' R ( R  .} } } ( / / .... .]  .o.O.o.[ Y d = d d a f g g f p 2 0 2 & ; F ' ! ~ ! ! ! ! W ) E _ s s p c g i y a f a y ",
"g Y ] / I l l l Y ( ( ( }  .] ] ..=.1.1.1.1.1.=.[ ] D d D D V V Z N n b n n g s 1 F ' ' ~ ~ ! ! ! ! [ W _ s n D M M f f f N M c ",
"e N G V k k V l l l V l V Z l j v G / o.:.1.&.] / G j < t 7 y c p > 3 8 q q p s 5 B ! ! ! ~ Q ! ' [ _ E L 0 p g t y u u y y t t ",
"y g N V V V V F D I V I G D Z D J G G / [ &.) g n Z g < d 7 8 6 a z w 8 4 8 a s 7 N W E E ~ ! ` ! ! W F L s p d f f M M i i i i ",
"u f N B B F D D I I I I I T T U R R R ! Y g s g G n a < i r 5 6 y y 8 8 8 8 8 y 6 v A F U W W L S / S A B s a y t a c c c i M i ",
"y g v N b V V F G I I T T T ! ! ^ R R G l g v A N N t < i t t 8 y t 8 y y 8 8 y $ > 7 < e e t 7 0 q a p p 3 p g y i i i y i i i ",
"d y g c M Z B F D D I W R I T T R ! I V a g n n Z v t < u r r y y y r 8 6 8 7 7 2 f l k k k k f a a a a p > p s a y y i t y i i ",
"a r a v N V V F I F F T R T T T W Y Z f g N b f N g t < r r r y t y r y 6 5 6 7 2 f Z V V l d k g g f g v 8 a s a a a y i i i y ",
"a y f B B V M B F A V V I W R R Y D f s b N v c f p 2 : r e t y i t y 6 8 6 7 7 2 d M l k d i k g u f f c t a q p q y a i f i f ",
"y y v F F F B A K F F F I E I V l g g v v v c k g t , > r 2 t y y y r t 8 6 7 7 2 s l l k k u i f f k k g 7 q q 8 8 7 8 y i i c ",
"7 7 f V B V v b B A F F F A M g d d n n g g a f v 2 , , 7 e t 7 r y 5 5 6 6 7 7 2 d j V l k i k t a f f g 7 a q q q 8 8 i i i c ",
"3 5 t a f f y y r r t a a p p f j Z Z v s a f k d > > > t r i t y y r 6 6 6 3 2 0 p l M M M k k g c M f b a q 4 q q q i a c i i ",
"$ - - > > - > 3 $ > 3 - = - : : > : & > $ 7 7 : & * > * * > 2 7 r 5 1 < > 4 : $ , a v M C M k i f c c B b 7 O 1 1 7 d 7 7 > 3 6 ",
"A A H Y ! F v - g Z A b N Z n Z A Z Z v 2 g G L Y H H H G / ` ..| [ $.| [ W L F 0 s g M C C M k f M c v Z a d G ' ` W ! W W F F ",
"=.=.>.:.>.;.[ t H L ) ) / / Y H H F F G a Z L Y I Y U C Z V G T Y ! } ` W D N V s s M f C V M i f M B B F D Y O.1.O. .} | | ' | ",
"Y Y ` R Y Y T d v G F D D D l l M f g v d v M d V V V M l g k k l l l V k g g f 0 d B M M i k M i N B B F G ` O.) Y I I D I I ! ",
"! F F V l l F g K E W F U U F F N B B B 7 i c M M C F K F C C C U C C V N Z F V 2 s Z l B i M M c N B B F D Y R F F T ! W W W ^ ",
"L A F C V M F d P Q W K E U U F E K K K y y c N f c B C K K K J F K B N V B B c 2 s v v C M M M M b B B F k D D V C F E W W W W ",
"N v N M B M N t Q @.~ Q E W E W F C K F i i f i z c B C E E E E C C N N V V l g < 0 g g B M V M B M B B D t D Z V F V F U W E F ",
"f c M f M g N d _ #.@.~ ! ! W E F K L L a y f c y z M C K E K C F V V V l k k V > p v f C M M M N B F J B 1 V V M V F C C U C k ",
"M f i c c M A p J P Q _ | | ! T K K J Q i c B b z y a b K B C F B A B b B b c c : 7 g g Z b M C N F V v M e G V B B B C F K B f ",
"c N M M c f g 1 m J P ! } ! R I K P J Q c N J B c z a c B A K B m B B B B B z y - f V V Z M M M N V B B D u V N M V D C B V N M ",
"f l N M v Z g p b J E ! ! ! W ! L L P P z f b b z x z y v A F B B B B B B B c y - F U C F B C C B M C N B e N D k g k N M f f k ",
"v g M f N Z 0 , m P Q ! ! ! ! } E P J J y r f y a z z q c A J J K A B B F B b x > d C N N N M C B B K N f 2 g W N g d d f i i i ",
"f g N N A b 7 , m P Q W ! _ ! ! ! L P J a r z z x x x z c c B A B A K A K B v a 0 * g N c B v B B B J v 0 2 a F F V v c c c c b ",
"- $ < < > > $ $ A J W W ! ! ! ! W K J P f t b x b b b x z y a z c c c c z a a 8 % . < 2 - > - 1 : > - & O   O < : = # @ X # # - ",
") ) ` ` / Y Z 2 m L P E ~ ^ ~ ! W F J J c t b b B b b c a y p a p a t 7 7 r y 7 s Z F V v v M N v v v v Z 2 F ) ' ` ) ) ! ! ~ ! ",
"7.8.8.9.q.8.=.t x A L E W ! ! W ) K P P c 7 B b b B b c c v v v x c g a t y t r s &.` U Y Y ) Y W W ) W ` d -.0.9.9.8.8.9.0.9.7.",
"! %.;.%.%.%.G 2 v n H Y U ! ! Q P F K _ v p B b A K A B B M c v V M N c f v g p p Z V V V N V F D F V l D 2 g ) / ) E J E ! ! W ",
"T $.%.^ ! ! V > x Z F H E W E E P K L P f c b B K J J B B b c B B c b M M f f a s F V V V M N F V F F H H 2 g H L L Q K Q Q ! Y ",
"` ..! E T ~ Z > p v Z G H W W P +.J P B 7 c v c m A B b b z c b x z x b M M N v p Z V V N N N V D D Y H F 2 v / H E Q +._ Q L F ",
"[ ! E U ^ } F 0 0 s b A G L P P b c b c > i k g p a a a a a 8 p q q y f k g g a 7 M k M C N V M V V F F V 7 G ) L L P Q Q Q E E ",
"! E W W E ! A p > , 0 p p a a a 6 8 p a = = 2 = 1 < < < 1 2 < < - : = - < r 2 + 8 v k M V C C V M M F F V 1 A L K K K +.+.Q Q Q ",
"! W ! ! ! ! A 4 s x n v v N N Z A A v Z d Z %.=.=.=.....=.=.%.*.=.-.-.*.%.&.{ S s c f i M B M B D N C N f > Z H F K E Q ~ ~ ~ ' ",
"[ ! ! ! _ | J * > 4 7 t t u i d d a a v t b Y F Y Y F G Y U U U V F A A E _ ) / i B M i M i M M F M M d d 1 V L T E W ~ +.~ ' [ ",
") E ! Q E _ A * , 2 7 t t u f d k t g p > v Z V V D F D F C B B D b b v b F W ` i C M M M k i k c f c i f 5 A L Y W ~ ~ ~ ~ ~ ~ ",
"} W } E Q Q b 3 > 4 5 r i c M f M V f g 7 v v M B B C F W U F F F F B M g c F Q z N M k l V M c c c v y v > H A W ` ` ` | | } | ",
"..! _ P Q P x - > 3 7 r i c M k g N f f t A A Z V C F E W ! ~ W W E F V v N N B 6 a M V D D V M M c d f g - G _ ! ' ' | @.$.$.%.",
"H Z H G J A p & > 5 7 y i c M c f l f f 7 A H A C U U C C F U F I Y F F F L G v 1 p g l l k f k c t t u r = d F F E H F F F E ~ ",
"p 7 q y v s p & 3 5 8 i y i i i i N M g 7 G L L ! T C M f M M M V D I U W Q J A : p g l l l k V N l g g f d t a d t t r t r t d ",
"f M M c A F F g 7 4 r r t i i i i M M v 2 A ) Q W E C M M k k M k k C U U C B b f ) ..%.X.X.^ ^ ! Y Y F D L D N N V M l Z V N Z ",
"t t y r r y c 1 7 7 7 y r t i i i c N Z 7 G _ _ E B M C C V M M k M M V M i s c t Z W F V V V i l l l k g M g f a d t a f f d t ",
"f i i y i z v 7 7 7 r r r y i c f i g N 7 B P K B B M C C B M k k M M M M M M v 2 v v f k M V V N V V V V M N N M M c M M M f f ",
"M i y i b i a 6 8 6 y y r r i i M i d N 7 c J B B B M c M C V V i M M M V U U D 4 v v c M V V C U F V k M k V v N V N N V N N N ",
"M g u y f c a 5 7 7 4 7 8 p 7 6 7 r 7 , * 4 g v c z x x v l M M d d l l g Z Z g > x N b C C F T W Y V V V V V V V V C V V C C C ",
"Z V M M M B z 7 $ > 7 7 7 7 7 t t p 7 , , 2 2 > 7 , 4 0 s p 2 < p e e e d p 0 O 3 c B F K U F Y T Y T C C V C C C V C M V V V C ",
"M V V N C C v t / _ [ #.#.#.' ' +.P P P L S b a j s 0 0 j G H G G j j G H ) Y g 4 z B F E W W W W T E U C V V M M V M V N C V V ",
"V V C F U K A v H / ) ) _ W A m c z b b n x g G G S h h { =.o.o.` ( Y Y Y ) ` ..a c K Q ! ' [ ' ! E F V V V M l M M M M M M N M ",
"N V C F C C c p b m J J m b v b z c b b b v B K l Z s d o...Y F G Z g l f f V ) 7 c K Q Q _ ) H L H F F D V M M M l k M M k N M ",
"l V B F C C g 7 m b b z b b b b B B B B B B B N I D 2 2 ! ` U F Y M N B M M V I 7 c B J J J A v A F L L F V V V M M N N N M M N ",
"Z Z V C K B c 8 m m z z b b B B C B C C E E F C l l p 2 ) ` Y ! E C C F F C D D y N b v b b w x x n m G Z Z N M M v c c M c l M ",
"N g f f i c 7 1 w w c z i c M C V I T C U C D M l D p 2 Y W F ' U U K C V F D V - y z y z w w w q 9 0 p g M f u d d f d f f f d ",
"Z D D l Z Z g : w z z i c M M B V F F E F F F F N Z s > I ^ R ! W U E T F V F V # p a a g a 9 w a p p g g 2 g Z M N l l Z N g g ",
"=.=.=.&.=.-.#.g b c c i c M M C V F F E F F V N l M p > W X.| | ! W W ! U F D M a #.2.5.6.3.0.-.3.5.6.6.3.H ' -.>.4.4.,.>.-.>.>.",
"G D F D Y ' | N b b c c M M M C F F F V V V V B l g 7 : ! $.| X.' W W E Y F F g v *.,.$.$.$.-.-.-.$.' *.5.Y F E E ) ' Y Z V F U ",
"F F E D V F B 5 i c b c M M C K E F C V N V C F V g p $ E ` ! ! ! T U F F F F V y _ @.! Q ~ @.~ @.@.' ..-.Z k F Y ` ! F l V F U ",
"Y F F V F F V 1 z M M M M M M C V V V F F F C C F v p $ H Y U U E E E U F F F V > F _ ~ | ~ ~ ~ Q $.%.$.$.t d U W W U F I W ' ! ",
"W H F N V M N 5 c b M M B M M M k f c M N C F C F B a : F ! Y W W W ` ! U F F l t E _ ~ ~ E ! ~ ~ $.$.@.| t i F C V M k F E W W ",
"V A U U F N N 3 c M C M M M M C N M f k N C F F F A p : A _ E ! W ! ! E F F D V 7 U ~ ~ ~ E E ! ..%.%.$.| r d F V N f f M B V V ",
"G F F N V B N ; c M M M C M C E V V N V C F F F N N 7 $ N ! Y E Y U T F V D Z V d E ! C U U K E ) T ` ....y c E F N v M Z V V B "
};
